G04 EAGLE Gerber RS-274X export*
G75*
%MOMM*%
%FSLAX34Y34*%
%LPD*%
%INTop Silkscreen*%
%IPPOS*%
%AMOC8*
5,1,8,0,0,1.08239X$1,22.5*%
G01*
%ADD10C,0.203200*%
%ADD11C,0.127000*%
%ADD12C,0.406400*%
%ADD13C,0.076200*%
%ADD14C,0.152400*%
%ADD15C,0.254000*%
%ADD16C,0.101600*%
%ADD17R,0.508000X2.540000*%
%ADD18R,1.905000X0.762000*%


D10*
X377650Y514600D02*
X390350Y514600D01*
X396700Y508250D01*
X396700Y495550D02*
X390350Y489200D01*
X352250Y514600D02*
X345900Y508250D01*
X352250Y514600D02*
X364950Y514600D01*
X371300Y508250D01*
X371300Y495550D02*
X364950Y489200D01*
X352250Y489200D01*
X345900Y495550D01*
X371300Y508250D02*
X377650Y514600D01*
X371300Y495550D02*
X377650Y489200D01*
X390350Y489200D01*
X314150Y514600D02*
X301450Y514600D01*
X314150Y514600D02*
X320500Y508250D01*
X320500Y495550D02*
X314150Y489200D01*
X320500Y508250D02*
X326850Y514600D01*
X339550Y514600D01*
X345900Y508250D01*
X345900Y495550D02*
X339550Y489200D01*
X326850Y489200D01*
X320500Y495550D01*
X295100Y495550D02*
X295100Y508250D01*
X301450Y514600D01*
X295100Y495550D02*
X301450Y489200D01*
X314150Y489200D01*
X396700Y495550D02*
X396700Y508250D01*
D11*
X296540Y516505D02*
X295735Y517310D01*
X296540Y516505D02*
X297345Y516505D01*
X298150Y517310D01*
X298150Y521335D01*
X297345Y521335D02*
X298955Y521335D01*
X301348Y519725D02*
X302958Y521335D01*
X302958Y516505D01*
X301348Y516505D02*
X304568Y516505D01*
D10*
X196050Y519600D02*
X183350Y519600D01*
X196050Y519600D02*
X202400Y513250D01*
X202400Y500550D02*
X196050Y494200D01*
X157950Y519600D02*
X151600Y513250D01*
X157950Y519600D02*
X170650Y519600D01*
X177000Y513250D01*
X177000Y500550D02*
X170650Y494200D01*
X157950Y494200D01*
X151600Y500550D01*
X177000Y513250D02*
X183350Y519600D01*
X177000Y500550D02*
X183350Y494200D01*
X196050Y494200D01*
X119850Y519600D02*
X107150Y519600D01*
X119850Y519600D02*
X126200Y513250D01*
X126200Y500550D02*
X119850Y494200D01*
X126200Y513250D02*
X132550Y519600D01*
X145250Y519600D01*
X151600Y513250D01*
X151600Y500550D02*
X145250Y494200D01*
X132550Y494200D01*
X126200Y500550D01*
X100800Y500550D02*
X100800Y513250D01*
X107150Y519600D01*
X100800Y500550D02*
X107150Y494200D01*
X119850Y494200D01*
X202400Y500550D02*
X202400Y513250D01*
D11*
X102240Y521505D02*
X101435Y522310D01*
X102240Y521505D02*
X103045Y521505D01*
X103850Y522310D01*
X103850Y526335D01*
X103045Y526335D02*
X104655Y526335D01*
X107048Y521505D02*
X110268Y521505D01*
X107048Y521505D02*
X110268Y524725D01*
X110268Y525530D01*
X109463Y526335D01*
X107853Y526335D01*
X107048Y525530D01*
D12*
X246200Y471650D02*
X246200Y306550D01*
X246200Y471650D02*
X449400Y471650D01*
X449400Y306550D01*
X246200Y306550D01*
D11*
X281117Y345285D02*
X290015Y345285D01*
X284083Y348251D02*
X281117Y345285D01*
X284083Y348251D02*
X281117Y351217D01*
X290015Y351217D01*
X281117Y359089D02*
X282600Y360572D01*
X281117Y359089D02*
X281117Y356123D01*
X282600Y354640D01*
X284083Y354640D01*
X285566Y356123D01*
X285566Y359089D01*
X287049Y360572D01*
X288532Y360572D01*
X290015Y359089D01*
X290015Y356123D01*
X288532Y354640D01*
X284083Y363995D02*
X281117Y366961D01*
X290015Y366961D01*
X290015Y363995D02*
X290015Y369927D01*
X306517Y345285D02*
X315415Y345285D01*
X309483Y348251D02*
X306517Y345285D01*
X309483Y348251D02*
X306517Y351217D01*
X315415Y351217D01*
X306517Y359089D02*
X308000Y360572D01*
X306517Y359089D02*
X306517Y356123D01*
X308000Y354640D01*
X309483Y354640D01*
X310966Y356123D01*
X310966Y359089D01*
X312449Y360572D01*
X313932Y360572D01*
X315415Y359089D01*
X315415Y356123D01*
X313932Y354640D01*
X315415Y363995D02*
X315415Y369927D01*
X315415Y363995D02*
X309483Y369927D01*
X308000Y369927D01*
X306517Y368444D01*
X306517Y365478D01*
X308000Y363995D01*
X331917Y345285D02*
X340815Y345285D01*
X334883Y348251D02*
X331917Y345285D01*
X334883Y348251D02*
X331917Y351217D01*
X340815Y351217D01*
X331917Y359089D02*
X333400Y360572D01*
X331917Y359089D02*
X331917Y356123D01*
X333400Y354640D01*
X334883Y354640D01*
X336366Y356123D01*
X336366Y359089D01*
X337849Y360572D01*
X339332Y360572D01*
X340815Y359089D01*
X340815Y356123D01*
X339332Y354640D01*
X333400Y363995D02*
X331917Y365478D01*
X331917Y368444D01*
X333400Y369927D01*
X334883Y369927D01*
X336366Y368444D01*
X336366Y366961D01*
X336366Y368444D02*
X337849Y369927D01*
X339332Y369927D01*
X340815Y368444D01*
X340815Y365478D01*
X339332Y363995D01*
X354785Y344650D02*
X354785Y391426D01*
X357317Y345285D02*
X366215Y345285D01*
X357317Y345285D02*
X357317Y349734D01*
X358800Y351217D01*
X361766Y351217D01*
X363249Y349734D01*
X363249Y345285D01*
X363249Y348251D02*
X366215Y351217D01*
X357317Y354640D02*
X357317Y360572D01*
X357317Y354640D02*
X366215Y354640D01*
X366215Y360572D01*
X361766Y357606D02*
X361766Y354640D01*
X357317Y368444D02*
X358800Y369927D01*
X357317Y368444D02*
X357317Y365478D01*
X358800Y363995D01*
X360283Y363995D01*
X361766Y365478D01*
X361766Y368444D01*
X363249Y369927D01*
X364732Y369927D01*
X366215Y368444D01*
X366215Y365478D01*
X364732Y363995D01*
X357317Y373351D02*
X357317Y379282D01*
X357317Y373351D02*
X366215Y373351D01*
X366215Y379282D01*
X361766Y376316D02*
X361766Y373351D01*
X366215Y385672D02*
X357317Y385672D01*
X357317Y388637D02*
X357317Y382706D01*
X380185Y391426D02*
X380185Y344650D01*
X382717Y349734D02*
X384200Y351217D01*
X382717Y349734D02*
X382717Y346768D01*
X384200Y345285D01*
X385683Y345285D01*
X387166Y346768D01*
X387166Y349734D01*
X388649Y351217D01*
X390132Y351217D01*
X391615Y349734D01*
X391615Y346768D01*
X390132Y345285D01*
X391615Y354640D02*
X382717Y354640D01*
X391615Y354640D02*
X391615Y360572D01*
X382717Y363995D02*
X382717Y369927D01*
X382717Y363995D02*
X391615Y363995D01*
X391615Y369927D01*
X387166Y366961D02*
X387166Y363995D01*
X382717Y373351D02*
X382717Y379282D01*
X382717Y373351D02*
X391615Y373351D01*
X391615Y379282D01*
X387166Y376316D02*
X387166Y373351D01*
X391615Y382706D02*
X382717Y382706D01*
X382717Y387155D01*
X384200Y388637D01*
X387166Y388637D01*
X388649Y387155D01*
X388649Y382706D01*
X409600Y351217D02*
X408117Y349734D01*
X408117Y346768D01*
X409600Y345285D01*
X411083Y345285D01*
X412566Y346768D01*
X412566Y349734D01*
X414049Y351217D01*
X415532Y351217D01*
X417015Y349734D01*
X417015Y346768D01*
X415532Y345285D01*
X417015Y357606D02*
X408117Y357606D01*
X408117Y354640D02*
X408117Y360572D01*
X408117Y363995D02*
X408117Y369927D01*
X408117Y363995D02*
X417015Y363995D01*
X417015Y369927D01*
X412566Y366961D02*
X412566Y363995D01*
X417015Y373351D02*
X408117Y373351D01*
X408117Y377799D01*
X409600Y379282D01*
X412566Y379282D01*
X414049Y377799D01*
X414049Y373351D01*
X433517Y345285D02*
X442415Y345285D01*
X442415Y349734D01*
X440932Y351217D01*
X435000Y351217D01*
X433517Y349734D01*
X433517Y345285D01*
X442415Y354640D02*
X442415Y357606D01*
X442415Y356123D02*
X433517Y356123D01*
X433517Y354640D02*
X433517Y357606D01*
X433517Y360877D02*
X442415Y360877D01*
X433517Y360877D02*
X433517Y365326D01*
X435000Y366809D01*
X437966Y366809D01*
X439449Y365326D01*
X439449Y360877D01*
X439449Y363843D02*
X442415Y366809D01*
X253185Y372716D02*
X253185Y344650D01*
X255717Y345285D02*
X255717Y351217D01*
X255717Y345285D02*
X264615Y345285D01*
X264615Y351217D01*
X260166Y348251D02*
X260166Y345285D01*
X264615Y354640D02*
X255717Y354640D01*
X264615Y360572D01*
X255717Y360572D01*
X258683Y363995D02*
X264615Y363995D01*
X258683Y363995D02*
X255717Y366961D01*
X258683Y369927D01*
X264615Y369927D01*
X260166Y369927D02*
X260166Y363995D01*
X261649Y396085D02*
X255717Y396085D01*
X261649Y396085D02*
X264615Y399051D01*
X261649Y402017D01*
X255717Y402017D01*
X255717Y405440D02*
X264615Y405440D01*
X258683Y408406D02*
X255717Y405440D01*
X258683Y408406D02*
X255717Y411372D01*
X264615Y411372D01*
X255717Y416278D02*
X255717Y419244D01*
X255717Y416278D02*
X257200Y414795D01*
X263132Y414795D01*
X264615Y416278D01*
X264615Y419244D01*
X263132Y420727D01*
X257200Y420727D01*
X255717Y419244D01*
X255717Y427116D02*
X264615Y427116D01*
X255717Y424151D02*
X255717Y430082D01*
X281117Y406884D02*
X282600Y408367D01*
X281117Y406884D02*
X281117Y403918D01*
X282600Y402435D01*
X288532Y402435D01*
X290015Y403918D01*
X290015Y406884D01*
X288532Y408367D01*
X285566Y408367D01*
X285566Y405401D01*
X290015Y411790D02*
X281117Y411790D01*
X290015Y417722D01*
X281117Y417722D01*
X281117Y421145D02*
X290015Y421145D01*
X290015Y425594D01*
X288532Y427077D01*
X282600Y427077D01*
X281117Y425594D01*
X281117Y421145D01*
X433517Y406884D02*
X435000Y408367D01*
X433517Y406884D02*
X433517Y403918D01*
X435000Y402435D01*
X440932Y402435D01*
X442415Y403918D01*
X442415Y406884D01*
X440932Y408367D01*
X437966Y408367D01*
X437966Y405401D01*
X442415Y411790D02*
X433517Y411790D01*
X442415Y417722D01*
X433517Y417722D01*
X433517Y421145D02*
X442415Y421145D01*
X442415Y425594D01*
X440932Y427077D01*
X435000Y427077D01*
X433517Y425594D01*
X433517Y421145D01*
X414049Y402435D02*
X408117Y402435D01*
X414049Y402435D02*
X417015Y405401D01*
X414049Y408367D01*
X408117Y408367D01*
X408117Y411790D02*
X417015Y411790D01*
X417015Y416239D01*
X415532Y417722D01*
X409600Y417722D01*
X408117Y416239D01*
X408117Y411790D01*
X408117Y421145D02*
X417015Y421145D01*
X417015Y425594D01*
X415532Y427077D01*
X409600Y427077D01*
X408117Y425594D01*
X408117Y421145D01*
X340815Y421067D02*
X340815Y415135D01*
X334883Y421067D01*
X333400Y421067D01*
X331917Y419584D01*
X331917Y416618D01*
X333400Y415135D01*
X334883Y424490D02*
X340815Y424490D01*
X334883Y424490D02*
X331917Y427456D01*
X334883Y430422D01*
X340815Y430422D01*
X336366Y430422D02*
X336366Y424490D01*
X357317Y418101D02*
X360283Y415135D01*
X357317Y418101D02*
X366215Y418101D01*
X366215Y415135D02*
X366215Y421067D01*
X366215Y424490D02*
X360283Y424490D01*
X357317Y427456D01*
X360283Y430422D01*
X366215Y430422D01*
X361766Y430422D02*
X361766Y424490D01*
X382717Y418101D02*
X385683Y415135D01*
X382717Y418101D02*
X391615Y418101D01*
X391615Y415135D02*
X391615Y421067D01*
X391615Y424490D02*
X382717Y424490D01*
X382717Y428939D01*
X384200Y430422D01*
X385683Y430422D01*
X387166Y428939D01*
X388649Y430422D01*
X390132Y430422D01*
X391615Y428939D01*
X391615Y424490D01*
X387166Y424490D02*
X387166Y428939D01*
X315415Y421067D02*
X315415Y415135D01*
X309483Y421067D01*
X308000Y421067D01*
X306517Y419584D01*
X306517Y416618D01*
X308000Y415135D01*
X306517Y424490D02*
X315415Y424490D01*
X306517Y424490D02*
X306517Y428939D01*
X308000Y430422D01*
X309483Y430422D01*
X310966Y428939D01*
X312449Y430422D01*
X313932Y430422D01*
X315415Y428939D01*
X315415Y424490D01*
X310966Y424490D02*
X310966Y428939D01*
D12*
X31200Y473850D02*
X31200Y308750D01*
X31200Y473850D02*
X234400Y473850D01*
X234400Y308750D01*
X31200Y308750D01*
D11*
X66117Y347485D02*
X75015Y347485D01*
X69083Y350451D02*
X66117Y347485D01*
X69083Y350451D02*
X66117Y353417D01*
X75015Y353417D01*
X66117Y361289D02*
X67600Y362772D01*
X66117Y361289D02*
X66117Y358323D01*
X67600Y356840D01*
X69083Y356840D01*
X70566Y358323D01*
X70566Y361289D01*
X72049Y362772D01*
X73532Y362772D01*
X75015Y361289D01*
X75015Y358323D01*
X73532Y356840D01*
X69083Y366195D02*
X66117Y369161D01*
X75015Y369161D01*
X75015Y366195D02*
X75015Y372127D01*
X91517Y347485D02*
X100415Y347485D01*
X94483Y350451D02*
X91517Y347485D01*
X94483Y350451D02*
X91517Y353417D01*
X100415Y353417D01*
X91517Y361289D02*
X93000Y362772D01*
X91517Y361289D02*
X91517Y358323D01*
X93000Y356840D01*
X94483Y356840D01*
X95966Y358323D01*
X95966Y361289D01*
X97449Y362772D01*
X98932Y362772D01*
X100415Y361289D01*
X100415Y358323D01*
X98932Y356840D01*
X100415Y366195D02*
X100415Y372127D01*
X100415Y366195D02*
X94483Y372127D01*
X93000Y372127D01*
X91517Y370644D01*
X91517Y367678D01*
X93000Y366195D01*
X116917Y347485D02*
X125815Y347485D01*
X119883Y350451D02*
X116917Y347485D01*
X119883Y350451D02*
X116917Y353417D01*
X125815Y353417D01*
X116917Y361289D02*
X118400Y362772D01*
X116917Y361289D02*
X116917Y358323D01*
X118400Y356840D01*
X119883Y356840D01*
X121366Y358323D01*
X121366Y361289D01*
X122849Y362772D01*
X124332Y362772D01*
X125815Y361289D01*
X125815Y358323D01*
X124332Y356840D01*
X118400Y366195D02*
X116917Y367678D01*
X116917Y370644D01*
X118400Y372127D01*
X119883Y372127D01*
X121366Y370644D01*
X121366Y369161D01*
X121366Y370644D02*
X122849Y372127D01*
X124332Y372127D01*
X125815Y370644D01*
X125815Y367678D01*
X124332Y366195D01*
X139785Y346850D02*
X139785Y393626D01*
X142317Y347485D02*
X151215Y347485D01*
X142317Y347485D02*
X142317Y351934D01*
X143800Y353417D01*
X146766Y353417D01*
X148249Y351934D01*
X148249Y347485D01*
X148249Y350451D02*
X151215Y353417D01*
X142317Y356840D02*
X142317Y362772D01*
X142317Y356840D02*
X151215Y356840D01*
X151215Y362772D01*
X146766Y359806D02*
X146766Y356840D01*
X142317Y370644D02*
X143800Y372127D01*
X142317Y370644D02*
X142317Y367678D01*
X143800Y366195D01*
X145283Y366195D01*
X146766Y367678D01*
X146766Y370644D01*
X148249Y372127D01*
X149732Y372127D01*
X151215Y370644D01*
X151215Y367678D01*
X149732Y366195D01*
X142317Y375551D02*
X142317Y381482D01*
X142317Y375551D02*
X151215Y375551D01*
X151215Y381482D01*
X146766Y378516D02*
X146766Y375551D01*
X151215Y387872D02*
X142317Y387872D01*
X142317Y390837D02*
X142317Y384906D01*
X165185Y393626D02*
X165185Y346850D01*
X167717Y351934D02*
X169200Y353417D01*
X167717Y351934D02*
X167717Y348968D01*
X169200Y347485D01*
X170683Y347485D01*
X172166Y348968D01*
X172166Y351934D01*
X173649Y353417D01*
X175132Y353417D01*
X176615Y351934D01*
X176615Y348968D01*
X175132Y347485D01*
X176615Y356840D02*
X167717Y356840D01*
X176615Y356840D02*
X176615Y362772D01*
X167717Y366195D02*
X167717Y372127D01*
X167717Y366195D02*
X176615Y366195D01*
X176615Y372127D01*
X172166Y369161D02*
X172166Y366195D01*
X167717Y375551D02*
X167717Y381482D01*
X167717Y375551D02*
X176615Y375551D01*
X176615Y381482D01*
X172166Y378516D02*
X172166Y375551D01*
X176615Y384906D02*
X167717Y384906D01*
X167717Y389355D01*
X169200Y390837D01*
X172166Y390837D01*
X173649Y389355D01*
X173649Y384906D01*
X194600Y353417D02*
X193117Y351934D01*
X193117Y348968D01*
X194600Y347485D01*
X196083Y347485D01*
X197566Y348968D01*
X197566Y351934D01*
X199049Y353417D01*
X200532Y353417D01*
X202015Y351934D01*
X202015Y348968D01*
X200532Y347485D01*
X202015Y359806D02*
X193117Y359806D01*
X193117Y356840D02*
X193117Y362772D01*
X193117Y366195D02*
X193117Y372127D01*
X193117Y366195D02*
X202015Y366195D01*
X202015Y372127D01*
X197566Y369161D02*
X197566Y366195D01*
X202015Y375551D02*
X193117Y375551D01*
X193117Y379999D01*
X194600Y381482D01*
X197566Y381482D01*
X199049Y379999D01*
X199049Y375551D01*
X218517Y347485D02*
X227415Y347485D01*
X227415Y351934D01*
X225932Y353417D01*
X220000Y353417D01*
X218517Y351934D01*
X218517Y347485D01*
X227415Y356840D02*
X227415Y359806D01*
X227415Y358323D02*
X218517Y358323D01*
X218517Y356840D02*
X218517Y359806D01*
X218517Y363077D02*
X227415Y363077D01*
X218517Y363077D02*
X218517Y367526D01*
X220000Y369009D01*
X222966Y369009D01*
X224449Y367526D01*
X224449Y363077D01*
X224449Y366043D02*
X227415Y369009D01*
X38185Y374916D02*
X38185Y346850D01*
X40717Y347485D02*
X40717Y353417D01*
X40717Y347485D02*
X49615Y347485D01*
X49615Y353417D01*
X45166Y350451D02*
X45166Y347485D01*
X49615Y356840D02*
X40717Y356840D01*
X49615Y362772D01*
X40717Y362772D01*
X43683Y366195D02*
X49615Y366195D01*
X43683Y366195D02*
X40717Y369161D01*
X43683Y372127D01*
X49615Y372127D01*
X45166Y372127D02*
X45166Y366195D01*
X46649Y398285D02*
X40717Y398285D01*
X46649Y398285D02*
X49615Y401251D01*
X46649Y404217D01*
X40717Y404217D01*
X40717Y407640D02*
X49615Y407640D01*
X43683Y410606D02*
X40717Y407640D01*
X43683Y410606D02*
X40717Y413572D01*
X49615Y413572D01*
X40717Y418478D02*
X40717Y421444D01*
X40717Y418478D02*
X42200Y416995D01*
X48132Y416995D01*
X49615Y418478D01*
X49615Y421444D01*
X48132Y422927D01*
X42200Y422927D01*
X40717Y421444D01*
X40717Y429316D02*
X49615Y429316D01*
X40717Y426351D02*
X40717Y432282D01*
X66117Y409084D02*
X67600Y410567D01*
X66117Y409084D02*
X66117Y406118D01*
X67600Y404635D01*
X73532Y404635D01*
X75015Y406118D01*
X75015Y409084D01*
X73532Y410567D01*
X70566Y410567D01*
X70566Y407601D01*
X75015Y413990D02*
X66117Y413990D01*
X75015Y419922D01*
X66117Y419922D01*
X66117Y423345D02*
X75015Y423345D01*
X75015Y427794D01*
X73532Y429277D01*
X67600Y429277D01*
X66117Y427794D01*
X66117Y423345D01*
X218517Y409084D02*
X220000Y410567D01*
X218517Y409084D02*
X218517Y406118D01*
X220000Y404635D01*
X225932Y404635D01*
X227415Y406118D01*
X227415Y409084D01*
X225932Y410567D01*
X222966Y410567D01*
X222966Y407601D01*
X227415Y413990D02*
X218517Y413990D01*
X227415Y419922D01*
X218517Y419922D01*
X218517Y423345D02*
X227415Y423345D01*
X227415Y427794D01*
X225932Y429277D01*
X220000Y429277D01*
X218517Y427794D01*
X218517Y423345D01*
X199049Y404635D02*
X193117Y404635D01*
X199049Y404635D02*
X202015Y407601D01*
X199049Y410567D01*
X193117Y410567D01*
X193117Y413990D02*
X202015Y413990D01*
X202015Y418439D01*
X200532Y419922D01*
X194600Y419922D01*
X193117Y418439D01*
X193117Y413990D01*
X193117Y423345D02*
X202015Y423345D01*
X202015Y427794D01*
X200532Y429277D01*
X194600Y429277D01*
X193117Y427794D01*
X193117Y423345D01*
X125815Y423267D02*
X125815Y417335D01*
X119883Y423267D01*
X118400Y423267D01*
X116917Y421784D01*
X116917Y418818D01*
X118400Y417335D01*
X119883Y426690D02*
X125815Y426690D01*
X119883Y426690D02*
X116917Y429656D01*
X119883Y432622D01*
X125815Y432622D01*
X121366Y432622D02*
X121366Y426690D01*
X142317Y420301D02*
X145283Y417335D01*
X142317Y420301D02*
X151215Y420301D01*
X151215Y417335D02*
X151215Y423267D01*
X151215Y426690D02*
X145283Y426690D01*
X142317Y429656D01*
X145283Y432622D01*
X151215Y432622D01*
X146766Y432622D02*
X146766Y426690D01*
X167717Y420301D02*
X170683Y417335D01*
X167717Y420301D02*
X176615Y420301D01*
X176615Y417335D02*
X176615Y423267D01*
X176615Y426690D02*
X167717Y426690D01*
X167717Y431139D01*
X169200Y432622D01*
X170683Y432622D01*
X172166Y431139D01*
X173649Y432622D01*
X175132Y432622D01*
X176615Y431139D01*
X176615Y426690D01*
X172166Y426690D02*
X172166Y431139D01*
X100415Y423267D02*
X100415Y417335D01*
X94483Y423267D01*
X93000Y423267D01*
X91517Y421784D01*
X91517Y418818D01*
X93000Y417335D01*
X91517Y426690D02*
X100415Y426690D01*
X91517Y426690D02*
X91517Y431139D01*
X93000Y432622D01*
X94483Y432622D01*
X95966Y431139D01*
X97449Y432622D01*
X98932Y432622D01*
X100415Y431139D01*
X100415Y426690D01*
X95966Y426690D02*
X95966Y431139D01*
D12*
X499500Y149700D02*
X499500Y111300D01*
X499500Y149700D02*
X448300Y149700D01*
X448300Y162500D01*
X499500Y162500D01*
X499500Y175300D01*
X448300Y175300D01*
X448300Y188100D01*
X499500Y188100D01*
X499500Y200900D01*
X448300Y200900D01*
X448300Y213700D01*
X499500Y213700D01*
X499500Y226500D01*
X422700Y226500D01*
X422700Y162500D01*
D13*
X495041Y237215D02*
X493473Y238783D01*
X493473Y241918D01*
X495041Y243486D01*
X496608Y243486D01*
X498176Y241918D01*
X498176Y240351D01*
X498176Y241918D02*
X499744Y243486D01*
X501311Y243486D01*
X502879Y241918D01*
X502879Y238783D01*
X501311Y237215D01*
X499744Y246571D02*
X493473Y246571D01*
X499744Y246571D02*
X502879Y249706D01*
X499744Y252841D01*
X493473Y252841D01*
X495041Y255926D02*
X493473Y257493D01*
X493473Y260629D01*
X495041Y262197D01*
X496608Y262197D01*
X498176Y260629D01*
X498176Y259061D01*
X498176Y260629D02*
X499744Y262197D01*
X501311Y262197D01*
X502879Y260629D01*
X502879Y257493D01*
X501311Y255926D01*
X468073Y252841D02*
X468073Y246571D01*
X477479Y246571D01*
X477479Y252841D01*
X472776Y249706D02*
X472776Y246571D01*
X477479Y255926D02*
X468073Y255926D01*
X477479Y262197D01*
X468073Y262197D01*
X444241Y243486D02*
X442673Y241918D01*
X442673Y238783D01*
X444241Y237215D01*
X445808Y237215D01*
X447376Y238783D01*
X447376Y241918D01*
X448944Y243486D01*
X450511Y243486D01*
X452079Y241918D01*
X452079Y238783D01*
X450511Y237215D01*
X448944Y246571D02*
X442673Y246571D01*
X448944Y246571D02*
X452079Y249706D01*
X448944Y252841D01*
X442673Y252841D01*
X442673Y255926D02*
X452079Y255926D01*
X442673Y255926D02*
X442673Y260629D01*
X444241Y262197D01*
X447376Y262197D01*
X448944Y260629D01*
X448944Y255926D01*
X418841Y243486D02*
X417273Y241918D01*
X417273Y238783D01*
X418841Y237215D01*
X420408Y237215D01*
X421976Y238783D01*
X421976Y241918D01*
X423544Y243486D01*
X425111Y243486D01*
X426679Y241918D01*
X426679Y238783D01*
X425111Y237215D01*
X423544Y246571D02*
X417273Y246571D01*
X423544Y246571D02*
X426679Y249706D01*
X423544Y252841D01*
X417273Y252841D01*
X417273Y255926D02*
X426679Y255926D01*
X426679Y262197D02*
X417273Y255926D01*
X417273Y262197D02*
X426679Y262197D01*
X401279Y234114D02*
X401279Y230979D01*
X401279Y232546D02*
X391873Y232546D01*
X391873Y230979D02*
X391873Y234114D01*
X391873Y238783D02*
X391873Y241918D01*
X391873Y238783D02*
X393441Y237215D01*
X399711Y237215D01*
X401279Y238783D01*
X401279Y241918D01*
X399711Y243486D01*
X393441Y243486D01*
X391873Y241918D01*
X393441Y246571D02*
X391873Y248138D01*
X391873Y251274D01*
X393441Y252841D01*
X395008Y252841D01*
X396576Y251274D01*
X396576Y249706D01*
X396576Y251274D02*
X398144Y252841D01*
X399711Y252841D01*
X401279Y251274D01*
X401279Y248138D01*
X399711Y246571D01*
X401279Y260629D02*
X391873Y260629D01*
X396576Y255926D01*
X396576Y262196D01*
X375879Y234114D02*
X375879Y230979D01*
X375879Y232546D02*
X366473Y232546D01*
X366473Y230979D02*
X366473Y234114D01*
X366473Y238783D02*
X366473Y241918D01*
X366473Y238783D02*
X368041Y237215D01*
X374311Y237215D01*
X375879Y238783D01*
X375879Y241918D01*
X374311Y243486D01*
X368041Y243486D01*
X366473Y241918D01*
X368041Y246571D02*
X366473Y248138D01*
X366473Y251274D01*
X368041Y252841D01*
X369608Y252841D01*
X371176Y251274D01*
X371176Y249706D01*
X371176Y251274D02*
X372744Y252841D01*
X374311Y252841D01*
X375879Y251274D01*
X375879Y248138D01*
X374311Y246571D01*
X366473Y255926D02*
X366473Y262196D01*
X366473Y255926D02*
X371176Y255926D01*
X369608Y259061D01*
X369608Y260629D01*
X371176Y262196D01*
X374311Y262196D01*
X375879Y260629D01*
X375879Y257493D01*
X374311Y255926D01*
X350479Y234114D02*
X350479Y230979D01*
X350479Y232546D02*
X341073Y232546D01*
X341073Y230979D02*
X341073Y234114D01*
X341073Y238783D02*
X341073Y241918D01*
X341073Y238783D02*
X342641Y237215D01*
X348911Y237215D01*
X350479Y238783D01*
X350479Y241918D01*
X348911Y243486D01*
X342641Y243486D01*
X341073Y241918D01*
X342641Y246571D02*
X341073Y248138D01*
X341073Y251274D01*
X342641Y252841D01*
X344208Y252841D01*
X345776Y251274D01*
X345776Y249706D01*
X345776Y251274D02*
X347344Y252841D01*
X348911Y252841D01*
X350479Y251274D01*
X350479Y248138D01*
X348911Y246571D01*
X350479Y255926D02*
X350479Y262196D01*
X350479Y255926D02*
X344208Y262196D01*
X342641Y262196D01*
X341073Y260629D01*
X341073Y257493D01*
X342641Y255926D01*
X325079Y234114D02*
X325079Y230979D01*
X325079Y232546D02*
X315673Y232546D01*
X315673Y230979D02*
X315673Y234114D01*
X315673Y238783D02*
X315673Y241918D01*
X315673Y238783D02*
X317241Y237215D01*
X323511Y237215D01*
X325079Y238783D01*
X325079Y241918D01*
X323511Y243486D01*
X317241Y243486D01*
X315673Y241918D01*
X317241Y246571D02*
X315673Y248138D01*
X315673Y251274D01*
X317241Y252841D01*
X318808Y252841D01*
X320376Y251274D01*
X320376Y249706D01*
X320376Y251274D02*
X321944Y252841D01*
X323511Y252841D01*
X325079Y251274D01*
X325079Y248138D01*
X323511Y246571D01*
X317241Y255926D02*
X315673Y257493D01*
X315673Y260629D01*
X317241Y262196D01*
X318808Y262196D01*
X320376Y260629D01*
X320376Y259061D01*
X320376Y260629D02*
X321944Y262196D01*
X323511Y262196D01*
X325079Y260629D01*
X325079Y257493D01*
X323511Y255926D01*
X299679Y234114D02*
X299679Y230979D01*
X299679Y232546D02*
X290273Y232546D01*
X290273Y230979D02*
X290273Y234114D01*
X290273Y238783D02*
X290273Y241918D01*
X290273Y238783D02*
X291841Y237215D01*
X298111Y237215D01*
X299679Y238783D01*
X299679Y241918D01*
X298111Y243486D01*
X291841Y243486D01*
X290273Y241918D01*
X299679Y246571D02*
X299679Y252841D01*
X299679Y246571D02*
X293408Y252841D01*
X291841Y252841D01*
X290273Y251274D01*
X290273Y248138D01*
X291841Y246571D01*
X290273Y255926D02*
X290273Y262196D01*
X290273Y255926D02*
X294976Y255926D01*
X293408Y259061D01*
X293408Y260629D01*
X294976Y262196D01*
X298111Y262196D01*
X299679Y260629D01*
X299679Y257493D01*
X298111Y255926D01*
X274279Y234114D02*
X274279Y230979D01*
X274279Y232546D02*
X264873Y232546D01*
X264873Y230979D02*
X264873Y234114D01*
X264873Y238783D02*
X264873Y241918D01*
X264873Y238783D02*
X266441Y237215D01*
X272711Y237215D01*
X274279Y238783D01*
X274279Y241918D01*
X272711Y243486D01*
X266441Y243486D01*
X264873Y241918D01*
X274279Y246571D02*
X274279Y252841D01*
X274279Y246571D02*
X268008Y252841D01*
X266441Y252841D01*
X264873Y251274D01*
X264873Y248138D01*
X266441Y246571D01*
X266441Y259061D02*
X264873Y262196D01*
X266441Y259061D02*
X269576Y255926D01*
X272711Y255926D01*
X274279Y257493D01*
X274279Y260629D01*
X272711Y262196D01*
X271144Y262196D01*
X269576Y260629D01*
X269576Y255926D01*
X248879Y234114D02*
X248879Y230979D01*
X248879Y232546D02*
X239473Y232546D01*
X239473Y230979D02*
X239473Y234114D01*
X239473Y238783D02*
X239473Y241918D01*
X239473Y238783D02*
X241041Y237215D01*
X247311Y237215D01*
X248879Y238783D01*
X248879Y241918D01*
X247311Y243486D01*
X241041Y243486D01*
X239473Y241918D01*
X248879Y246571D02*
X248879Y252841D01*
X248879Y246571D02*
X242608Y252841D01*
X241041Y252841D01*
X239473Y251274D01*
X239473Y248138D01*
X241041Y246571D01*
X239473Y255926D02*
X239473Y262196D01*
X241041Y262196D01*
X247311Y255926D01*
X248879Y255926D01*
X223479Y234114D02*
X223479Y230979D01*
X223479Y232546D02*
X214073Y232546D01*
X214073Y230979D02*
X214073Y234114D01*
X214073Y238783D02*
X214073Y241918D01*
X214073Y238783D02*
X215641Y237215D01*
X221911Y237215D01*
X223479Y238783D01*
X223479Y241918D01*
X221911Y243486D01*
X215641Y243486D01*
X214073Y241918D01*
X217208Y246571D02*
X214073Y249706D01*
X223479Y249706D01*
X223479Y246571D02*
X223479Y252841D01*
X223479Y260629D02*
X214073Y260629D01*
X218776Y255926D01*
X218776Y262196D01*
X198079Y234114D02*
X198079Y230979D01*
X198079Y232546D02*
X188673Y232546D01*
X188673Y230979D02*
X188673Y234114D01*
X188673Y238783D02*
X188673Y241918D01*
X188673Y238783D02*
X190241Y237215D01*
X196511Y237215D01*
X198079Y238783D01*
X198079Y241918D01*
X196511Y243486D01*
X190241Y243486D01*
X188673Y241918D01*
X191808Y246571D02*
X188673Y249706D01*
X198079Y249706D01*
X198079Y246571D02*
X198079Y252841D01*
X198079Y255926D02*
X198079Y262196D01*
X198079Y255926D02*
X191808Y262196D01*
X190241Y262196D01*
X188673Y260629D01*
X188673Y257493D01*
X190241Y255926D01*
X164841Y243486D02*
X163273Y241918D01*
X163273Y238783D01*
X164841Y237215D01*
X171111Y237215D01*
X172679Y238783D01*
X172679Y241918D01*
X171111Y243486D01*
X167976Y243486D01*
X167976Y240351D01*
X172679Y246571D02*
X163273Y246571D01*
X172679Y252841D01*
X163273Y252841D01*
X163273Y255926D02*
X172679Y255926D01*
X172679Y260629D01*
X171111Y262197D01*
X164841Y262197D01*
X163273Y260629D01*
X163273Y255926D01*
X147279Y234114D02*
X147279Y230979D01*
X147279Y232546D02*
X137873Y232546D01*
X137873Y230979D02*
X137873Y234114D01*
X137873Y238783D02*
X137873Y241918D01*
X137873Y238783D02*
X139441Y237215D01*
X145711Y237215D01*
X147279Y238783D01*
X147279Y241918D01*
X145711Y243486D01*
X139441Y243486D01*
X137873Y241918D01*
X141008Y246571D02*
X137873Y249706D01*
X147279Y249706D01*
X147279Y246571D02*
X147279Y252841D01*
X139441Y255926D02*
X137873Y257493D01*
X137873Y260629D01*
X139441Y262196D01*
X141008Y262196D01*
X142576Y260629D01*
X142576Y259061D01*
X142576Y260629D02*
X144144Y262196D01*
X145711Y262196D01*
X147279Y260629D01*
X147279Y257493D01*
X145711Y255926D01*
X114041Y243486D02*
X112473Y241918D01*
X112473Y238783D01*
X114041Y237215D01*
X115608Y237215D01*
X117176Y238783D01*
X117176Y241918D01*
X118744Y243486D01*
X120311Y243486D01*
X121879Y241918D01*
X121879Y238783D01*
X120311Y237215D01*
X121879Y246571D02*
X112473Y246571D01*
X121879Y246571D02*
X121879Y251274D01*
X120311Y252841D01*
X114041Y252841D01*
X112473Y251274D01*
X112473Y246571D01*
X121879Y255926D02*
X121879Y262197D01*
X121879Y255926D02*
X115608Y262197D01*
X114041Y262197D01*
X112473Y260629D01*
X112473Y257493D01*
X114041Y255926D01*
X88641Y243486D02*
X87073Y241918D01*
X87073Y238783D01*
X88641Y237215D01*
X90208Y237215D01*
X91776Y238783D01*
X91776Y241918D01*
X93344Y243486D01*
X94911Y243486D01*
X96479Y241918D01*
X96479Y238783D01*
X94911Y237215D01*
X96479Y246571D02*
X87073Y246571D01*
X96479Y246571D02*
X96479Y251274D01*
X94911Y252841D01*
X88641Y252841D01*
X87073Y251274D01*
X87073Y246571D01*
X88641Y255926D02*
X87073Y257493D01*
X87073Y260629D01*
X88641Y262197D01*
X90208Y262197D01*
X91776Y260629D01*
X91776Y259061D01*
X91776Y260629D02*
X93344Y262197D01*
X94911Y262197D01*
X96479Y260629D01*
X96479Y257493D01*
X94911Y255926D01*
X63241Y243486D02*
X61673Y241918D01*
X61673Y238783D01*
X63241Y237215D01*
X69511Y237215D01*
X71079Y238783D01*
X71079Y241918D01*
X69511Y243486D01*
X71079Y246571D02*
X61673Y246571D01*
X64808Y249706D01*
X61673Y252841D01*
X71079Y252841D01*
X71079Y255926D02*
X61673Y255926D01*
X71079Y255926D02*
X71079Y260629D01*
X69511Y262197D01*
X63241Y262197D01*
X61673Y260629D01*
X61673Y255926D01*
X36273Y252841D02*
X36273Y246571D01*
X40976Y246571D01*
X39408Y249706D01*
X39408Y251274D01*
X40976Y252841D01*
X44111Y252841D01*
X45679Y251274D01*
X45679Y248138D01*
X44111Y246571D01*
X42544Y255926D02*
X36273Y255926D01*
X42544Y255926D02*
X45679Y259061D01*
X42544Y262197D01*
X36273Y262197D01*
X493273Y81718D02*
X494841Y83286D01*
X493273Y81718D02*
X493273Y78583D01*
X494841Y77015D01*
X501111Y77015D01*
X502679Y78583D01*
X502679Y81718D01*
X501111Y83286D01*
X497976Y83286D01*
X497976Y80151D01*
X502679Y86371D02*
X493273Y86371D01*
X502679Y92641D01*
X493273Y92641D01*
X493273Y95726D02*
X502679Y95726D01*
X502679Y100429D01*
X501111Y101997D01*
X494841Y101997D01*
X493273Y100429D01*
X493273Y95726D01*
X477279Y73914D02*
X477279Y70779D01*
X477279Y72346D02*
X467873Y72346D01*
X467873Y70779D02*
X467873Y73914D01*
X467873Y78583D02*
X467873Y81718D01*
X467873Y78583D02*
X469441Y77015D01*
X475711Y77015D01*
X477279Y78583D01*
X477279Y81718D01*
X475711Y83286D01*
X469441Y83286D01*
X467873Y81718D01*
X477279Y86371D02*
X477279Y92641D01*
X477279Y86371D02*
X471008Y92641D01*
X469441Y92641D01*
X467873Y91074D01*
X467873Y87938D01*
X469441Y86371D01*
X469441Y95726D02*
X467873Y97293D01*
X467873Y100429D01*
X469441Y101996D01*
X471008Y101996D01*
X472576Y100429D01*
X472576Y98861D01*
X472576Y100429D02*
X474144Y101996D01*
X475711Y101996D01*
X477279Y100429D01*
X477279Y97293D01*
X475711Y95726D01*
X451879Y73914D02*
X451879Y70779D01*
X451879Y72346D02*
X442473Y72346D01*
X442473Y70779D02*
X442473Y73914D01*
X442473Y78583D02*
X442473Y81718D01*
X442473Y78583D02*
X444041Y77015D01*
X450311Y77015D01*
X451879Y78583D01*
X451879Y81718D01*
X450311Y83286D01*
X444041Y83286D01*
X442473Y81718D01*
X451879Y86371D02*
X451879Y92641D01*
X451879Y86371D02*
X445608Y92641D01*
X444041Y92641D01*
X442473Y91074D01*
X442473Y87938D01*
X444041Y86371D01*
X451879Y95726D02*
X451879Y101996D01*
X451879Y95726D02*
X445608Y101996D01*
X444041Y101996D01*
X442473Y100429D01*
X442473Y97293D01*
X444041Y95726D01*
X426479Y70796D02*
X417073Y70796D01*
X417073Y73931D02*
X417073Y67660D01*
X417073Y77015D02*
X426479Y83286D01*
X426479Y77015D02*
X417073Y83286D01*
X417073Y86371D02*
X426479Y86371D01*
X426479Y91074D01*
X424911Y92641D01*
X418641Y92641D01*
X417073Y91074D01*
X417073Y86371D01*
X418641Y95726D02*
X424911Y95726D01*
X418641Y95726D02*
X417073Y97293D01*
X417073Y100429D01*
X418641Y101996D01*
X424911Y101996D01*
X426479Y100429D01*
X426479Y97293D01*
X424911Y95726D01*
X418641Y101996D01*
X401079Y67660D02*
X391673Y67660D01*
X391673Y72363D01*
X393241Y73931D01*
X396376Y73931D01*
X397944Y72363D01*
X397944Y67660D01*
X397944Y70796D02*
X401079Y73931D01*
X401079Y83286D02*
X391673Y77015D01*
X391673Y83286D02*
X401079Y77015D01*
X401079Y86371D02*
X391673Y86371D01*
X401079Y86371D02*
X401079Y91074D01*
X399511Y92641D01*
X393241Y92641D01*
X391673Y91074D01*
X391673Y86371D01*
X393241Y95726D02*
X399511Y95726D01*
X393241Y95726D02*
X391673Y97293D01*
X391673Y100429D01*
X393241Y101996D01*
X399511Y101996D01*
X401079Y100429D01*
X401079Y97293D01*
X399511Y95726D01*
X393241Y101996D01*
X375679Y73914D02*
X375679Y70779D01*
X375679Y72346D02*
X366273Y72346D01*
X366273Y70779D02*
X366273Y73914D01*
X366273Y78583D02*
X366273Y81718D01*
X366273Y78583D02*
X367841Y77015D01*
X374111Y77015D01*
X375679Y78583D01*
X375679Y81718D01*
X374111Y83286D01*
X367841Y83286D01*
X366273Y81718D01*
X375679Y86371D02*
X375679Y92641D01*
X375679Y86371D02*
X369408Y92641D01*
X367841Y92641D01*
X366273Y91074D01*
X366273Y87938D01*
X367841Y86371D01*
X369408Y95726D02*
X366273Y98861D01*
X375679Y98861D01*
X375679Y95726D02*
X375679Y101996D01*
X342441Y83286D02*
X340873Y81718D01*
X340873Y78583D01*
X342441Y77015D01*
X348711Y77015D01*
X350279Y78583D01*
X350279Y81718D01*
X348711Y83286D01*
X345576Y83286D01*
X345576Y80151D01*
X350279Y86371D02*
X340873Y86371D01*
X350279Y92641D01*
X340873Y92641D01*
X340873Y95726D02*
X350279Y95726D01*
X350279Y100429D01*
X348711Y101997D01*
X342441Y101997D01*
X340873Y100429D01*
X340873Y95726D01*
X324879Y73914D02*
X324879Y70779D01*
X324879Y72346D02*
X315473Y72346D01*
X315473Y70779D02*
X315473Y73914D01*
X315473Y78583D02*
X315473Y81718D01*
X315473Y78583D02*
X317041Y77015D01*
X323311Y77015D01*
X324879Y78583D01*
X324879Y81718D01*
X323311Y83286D01*
X317041Y83286D01*
X315473Y81718D01*
X318608Y86371D02*
X315473Y89506D01*
X324879Y89506D01*
X324879Y86371D02*
X324879Y92641D01*
X323311Y95726D02*
X324879Y97293D01*
X324879Y100429D01*
X323311Y101996D01*
X317041Y101996D01*
X315473Y100429D01*
X315473Y97293D01*
X317041Y95726D01*
X318608Y95726D01*
X320176Y97293D01*
X320176Y101996D01*
X299479Y73914D02*
X299479Y70779D01*
X299479Y72346D02*
X290073Y72346D01*
X290073Y70779D02*
X290073Y73914D01*
X290073Y78583D02*
X290073Y81718D01*
X290073Y78583D02*
X291641Y77015D01*
X297911Y77015D01*
X299479Y78583D01*
X299479Y81718D01*
X297911Y83286D01*
X291641Y83286D01*
X290073Y81718D01*
X293208Y86371D02*
X290073Y89506D01*
X299479Y89506D01*
X299479Y86371D02*
X299479Y92641D01*
X291641Y95726D02*
X290073Y97293D01*
X290073Y100429D01*
X291641Y101996D01*
X293208Y101996D01*
X294776Y100429D01*
X296344Y101996D01*
X297911Y101996D01*
X299479Y100429D01*
X299479Y97293D01*
X297911Y95726D01*
X296344Y95726D01*
X294776Y97293D01*
X293208Y95726D01*
X291641Y95726D01*
X294776Y97293D02*
X294776Y100429D01*
X274079Y83269D02*
X274079Y80134D01*
X274079Y81701D02*
X264673Y81701D01*
X264673Y80134D02*
X264673Y83269D01*
X264673Y87938D02*
X264673Y91074D01*
X264673Y87938D02*
X266241Y86371D01*
X272511Y86371D01*
X274079Y87938D01*
X274079Y91074D01*
X272511Y92641D01*
X266241Y92641D01*
X264673Y91074D01*
X264673Y95726D02*
X264673Y101996D01*
X264673Y95726D02*
X269376Y95726D01*
X267808Y98861D01*
X267808Y100429D01*
X269376Y101996D01*
X272511Y101996D01*
X274079Y100429D01*
X274079Y97293D01*
X272511Y95726D01*
X248679Y73914D02*
X248679Y70779D01*
X248679Y72346D02*
X239273Y72346D01*
X239273Y70779D02*
X239273Y73914D01*
X239273Y78583D02*
X239273Y81718D01*
X239273Y78583D02*
X240841Y77015D01*
X247111Y77015D01*
X248679Y78583D01*
X248679Y81718D01*
X247111Y83286D01*
X240841Y83286D01*
X239273Y81718D01*
X242408Y86371D02*
X239273Y89506D01*
X248679Y89506D01*
X248679Y86371D02*
X248679Y92641D01*
X239273Y95726D02*
X239273Y101996D01*
X240841Y101996D01*
X247111Y95726D01*
X248679Y95726D01*
X223279Y73914D02*
X223279Y70779D01*
X223279Y72346D02*
X213873Y72346D01*
X213873Y70779D02*
X213873Y73914D01*
X213873Y78583D02*
X213873Y81718D01*
X213873Y78583D02*
X215441Y77015D01*
X221711Y77015D01*
X223279Y78583D01*
X223279Y81718D01*
X221711Y83286D01*
X215441Y83286D01*
X213873Y81718D01*
X217008Y86371D02*
X213873Y89506D01*
X223279Y89506D01*
X223279Y86371D02*
X223279Y92641D01*
X215441Y98861D02*
X213873Y101996D01*
X215441Y98861D02*
X218576Y95726D01*
X221711Y95726D01*
X223279Y97293D01*
X223279Y100429D01*
X221711Y101996D01*
X220144Y101996D01*
X218576Y100429D01*
X218576Y95726D01*
X197879Y83269D02*
X197879Y80134D01*
X197879Y81701D02*
X188473Y81701D01*
X188473Y80134D02*
X188473Y83269D01*
X188473Y87938D02*
X188473Y91074D01*
X188473Y87938D02*
X190041Y86371D01*
X196311Y86371D01*
X197879Y87938D01*
X197879Y91074D01*
X196311Y92641D01*
X190041Y92641D01*
X188473Y91074D01*
X188473Y100429D02*
X197879Y100429D01*
X193176Y95726D02*
X188473Y100429D01*
X193176Y101996D02*
X193176Y95726D01*
X172479Y83269D02*
X172479Y80134D01*
X172479Y81701D02*
X163073Y81701D01*
X163073Y80134D02*
X163073Y83269D01*
X163073Y87938D02*
X163073Y91074D01*
X163073Y87938D02*
X164641Y86371D01*
X170911Y86371D01*
X172479Y87938D01*
X172479Y91074D01*
X170911Y92641D01*
X164641Y92641D01*
X163073Y91074D01*
X164641Y95726D02*
X170911Y95726D01*
X164641Y95726D02*
X163073Y97293D01*
X163073Y100429D01*
X164641Y101996D01*
X170911Y101996D01*
X172479Y100429D01*
X172479Y97293D01*
X170911Y95726D01*
X164641Y101996D01*
X147079Y83269D02*
X147079Y80134D01*
X147079Y81701D02*
X137673Y81701D01*
X137673Y80134D02*
X137673Y83269D01*
X137673Y87938D02*
X137673Y91074D01*
X137673Y87938D02*
X139241Y86371D01*
X145511Y86371D01*
X147079Y87938D01*
X147079Y91074D01*
X145511Y92641D01*
X139241Y92641D01*
X137673Y91074D01*
X147079Y95726D02*
X147079Y101996D01*
X147079Y95726D02*
X140808Y101996D01*
X139241Y101996D01*
X137673Y100429D01*
X137673Y97293D01*
X139241Y95726D01*
X121679Y73914D02*
X121679Y70779D01*
X121679Y72346D02*
X112273Y72346D01*
X112273Y70779D02*
X112273Y73914D01*
X112273Y78583D02*
X112273Y81718D01*
X112273Y78583D02*
X113841Y77015D01*
X120111Y77015D01*
X121679Y78583D01*
X121679Y81718D01*
X120111Y83286D01*
X113841Y83286D01*
X112273Y81718D01*
X115408Y86371D02*
X112273Y89506D01*
X121679Y89506D01*
X121679Y86371D02*
X121679Y92641D01*
X112273Y95726D02*
X112273Y101996D01*
X112273Y95726D02*
X116976Y95726D01*
X115408Y98861D01*
X115408Y100429D01*
X116976Y101996D01*
X120111Y101996D01*
X121679Y100429D01*
X121679Y97293D01*
X120111Y95726D01*
X88441Y83286D02*
X86873Y81718D01*
X86873Y78583D01*
X88441Y77015D01*
X90008Y77015D01*
X91576Y78583D01*
X91576Y81718D01*
X93144Y83286D01*
X94711Y83286D01*
X96279Y81718D01*
X96279Y78583D01*
X94711Y77015D01*
X96279Y86371D02*
X86873Y86371D01*
X96279Y86371D02*
X96279Y91074D01*
X94711Y92641D01*
X88441Y92641D01*
X86873Y91074D01*
X86873Y86371D01*
X90008Y95726D02*
X86873Y98861D01*
X96279Y98861D01*
X96279Y95726D02*
X96279Y101997D01*
X63041Y83286D02*
X61473Y81718D01*
X61473Y78583D01*
X63041Y77015D01*
X64608Y77015D01*
X66176Y78583D01*
X66176Y81718D01*
X67744Y83286D01*
X69311Y83286D01*
X70879Y81718D01*
X70879Y78583D01*
X69311Y77015D01*
X70879Y86371D02*
X61473Y86371D01*
X70879Y86371D02*
X70879Y91074D01*
X69311Y92641D01*
X63041Y92641D01*
X61473Y91074D01*
X61473Y86371D01*
X63041Y95726D02*
X69311Y95726D01*
X63041Y95726D02*
X61473Y97293D01*
X61473Y100429D01*
X63041Y101997D01*
X69311Y101997D01*
X70879Y100429D01*
X70879Y97293D01*
X69311Y95726D01*
X63041Y101997D01*
X37641Y83286D02*
X36073Y81718D01*
X36073Y78583D01*
X37641Y77015D01*
X43911Y77015D01*
X45479Y78583D01*
X45479Y81718D01*
X43911Y83286D01*
X45479Y86371D02*
X36073Y86371D01*
X45479Y86371D02*
X45479Y92641D01*
X45479Y95726D02*
X36073Y95726D01*
X42344Y95726D02*
X36073Y101997D01*
X40776Y97293D02*
X45479Y101997D01*
D14*
X104801Y180953D02*
X116665Y180953D01*
X104801Y180953D02*
X104801Y163158D01*
X116665Y163158D01*
X110733Y172056D02*
X104801Y172056D01*
X131474Y180953D02*
X134439Y177987D01*
X131474Y180953D02*
X125542Y180953D01*
X122576Y177987D01*
X122576Y175021D01*
X125542Y172056D01*
X131474Y172056D01*
X134439Y169090D01*
X134439Y166124D01*
X131474Y163158D01*
X125542Y163158D01*
X122576Y166124D01*
X140351Y163158D02*
X140351Y180953D01*
X149248Y180953D01*
X152214Y177987D01*
X152214Y172056D01*
X149248Y169090D01*
X140351Y169090D01*
X158126Y177987D02*
X161091Y180953D01*
X167023Y180953D01*
X169989Y177987D01*
X169989Y175021D01*
X167023Y172056D01*
X164057Y172056D01*
X167023Y172056D02*
X169989Y169090D01*
X169989Y166124D01*
X167023Y163158D01*
X161091Y163158D01*
X158126Y166124D01*
X175900Y163158D02*
X187764Y163158D01*
X187764Y175021D02*
X175900Y163158D01*
X187764Y175021D02*
X187764Y177987D01*
X184798Y180953D01*
X178866Y180953D01*
X175900Y177987D01*
X193675Y172056D02*
X205539Y172056D01*
X211450Y180953D02*
X211450Y163158D01*
X220348Y163158D01*
X223314Y166124D01*
X223314Y177987D01*
X220348Y180953D01*
X211450Y180953D01*
X232191Y163158D02*
X238123Y163158D01*
X232191Y163158D02*
X229225Y166124D01*
X229225Y172056D01*
X232191Y175021D01*
X238123Y175021D01*
X241088Y172056D01*
X241088Y169090D01*
X229225Y169090D01*
X247000Y175021D02*
X252932Y163158D01*
X258863Y175021D01*
X264775Y180953D02*
X264775Y163158D01*
X264775Y169090D02*
X273672Y163158D01*
X264775Y169090D02*
X273672Y175021D01*
X279587Y175021D02*
X282553Y175021D01*
X282553Y163158D01*
X279587Y163158D02*
X285519Y163158D01*
X282553Y180953D02*
X282553Y183919D01*
X294403Y177987D02*
X294403Y166124D01*
X297369Y163158D01*
X297369Y175021D02*
X291437Y175021D01*
X312184Y180953D02*
X315150Y177987D01*
X312184Y180953D02*
X306253Y180953D01*
X303287Y177987D01*
X303287Y166124D01*
X306253Y163158D01*
X312184Y163158D01*
X315150Y166124D01*
D15*
X512300Y42900D02*
X29700Y42900D01*
X29700Y296900D01*
X512300Y296900D01*
X512300Y42900D01*
D11*
X542300Y244750D02*
X701050Y244750D01*
X701050Y35200D01*
X542300Y35200D01*
X542300Y244750D01*
X631200Y47900D02*
X669300Y47900D01*
X662950Y54250D01*
X669300Y47900D02*
X662950Y41550D01*
X631200Y47900D02*
X631200Y86000D01*
X637550Y79650D01*
X631200Y86000D02*
X624850Y79650D01*
D16*
X676158Y56204D02*
X683954Y48408D01*
X676158Y48408D02*
X683954Y56204D01*
X644408Y88457D02*
X644408Y94304D01*
X644408Y88457D02*
X646357Y86508D01*
X652204Y86508D01*
X652204Y84559D02*
X652204Y94304D01*
X652204Y84559D02*
X650255Y82610D01*
X648306Y82610D01*
X694192Y124608D02*
X694192Y128506D01*
X694192Y126557D02*
X682498Y126557D01*
X682498Y124608D02*
X682498Y128506D01*
X682498Y136302D02*
X694192Y136302D01*
X682498Y132404D02*
X682498Y140200D01*
X682498Y149945D02*
X684447Y151894D01*
X682498Y149945D02*
X682498Y146047D01*
X684447Y144098D01*
X692243Y144098D01*
X694192Y146047D01*
X694192Y149945D01*
X692243Y151894D01*
X688345Y151894D01*
X688345Y147996D01*
X694192Y155792D02*
X682498Y163588D01*
X682498Y167486D02*
X694192Y167486D01*
X686396Y171384D02*
X682498Y167486D01*
X686396Y171384D02*
X682498Y175282D01*
X694192Y175282D01*
X694192Y179180D02*
X682498Y179180D01*
X682498Y185027D01*
X684447Y186976D01*
X688345Y186976D01*
X690294Y185027D01*
X690294Y179180D01*
X692243Y190874D02*
X682498Y190874D01*
X692243Y190874D02*
X694192Y192823D01*
X694192Y196721D01*
X692243Y198670D01*
X682498Y198670D01*
D10*
X76550Y496220D02*
X63850Y496220D01*
X25000Y514000D02*
X25010Y514798D01*
X25039Y515595D01*
X25088Y516391D01*
X25156Y517186D01*
X25244Y517978D01*
X25352Y518769D01*
X25478Y519556D01*
X25624Y520340D01*
X25790Y521121D01*
X25974Y521897D01*
X26177Y522668D01*
X26399Y523434D01*
X26640Y524195D01*
X26900Y524949D01*
X27178Y525697D01*
X27474Y526437D01*
X27788Y527170D01*
X28120Y527896D01*
X28470Y528612D01*
X28838Y529320D01*
X29222Y530019D01*
X29624Y530708D01*
X30042Y531387D01*
X30477Y532056D01*
X30928Y532714D01*
X31396Y533360D01*
X31879Y533995D01*
X32377Y534618D01*
X32891Y535228D01*
X33419Y535826D01*
X33962Y536410D01*
X34519Y536981D01*
X35090Y537538D01*
X35674Y538081D01*
X36272Y538609D01*
X36882Y539123D01*
X37505Y539621D01*
X38140Y540104D01*
X38786Y540572D01*
X39444Y541023D01*
X40113Y541458D01*
X40792Y541876D01*
X41481Y542278D01*
X42180Y542662D01*
X42888Y543030D01*
X43604Y543380D01*
X44330Y543712D01*
X45063Y544026D01*
X45803Y544322D01*
X46551Y544600D01*
X47305Y544860D01*
X48066Y545101D01*
X48832Y545323D01*
X49603Y545526D01*
X50379Y545710D01*
X51160Y545876D01*
X51944Y546022D01*
X52731Y546148D01*
X53522Y546256D01*
X54314Y546344D01*
X55109Y546412D01*
X55905Y546461D01*
X56702Y546490D01*
X57500Y546500D01*
X58298Y546490D01*
X59095Y546461D01*
X59891Y546412D01*
X60686Y546344D01*
X61478Y546256D01*
X62269Y546148D01*
X63056Y546022D01*
X63840Y545876D01*
X64621Y545710D01*
X65397Y545526D01*
X66168Y545323D01*
X66934Y545101D01*
X67695Y544860D01*
X68449Y544600D01*
X69197Y544322D01*
X69937Y544026D01*
X70670Y543712D01*
X71396Y543380D01*
X72112Y543030D01*
X72820Y542662D01*
X73519Y542278D01*
X74208Y541876D01*
X74887Y541458D01*
X75556Y541023D01*
X76214Y540572D01*
X76860Y540104D01*
X77495Y539621D01*
X78118Y539123D01*
X78728Y538609D01*
X79326Y538081D01*
X79910Y537538D01*
X80481Y536981D01*
X81038Y536410D01*
X81581Y535826D01*
X82109Y535228D01*
X82623Y534618D01*
X83121Y533995D01*
X83604Y533360D01*
X84072Y532714D01*
X84523Y532056D01*
X84958Y531387D01*
X85376Y530708D01*
X85778Y530019D01*
X86162Y529320D01*
X86530Y528612D01*
X86880Y527896D01*
X87212Y527170D01*
X87526Y526437D01*
X87822Y525697D01*
X88100Y524949D01*
X88360Y524195D01*
X88601Y523434D01*
X88823Y522668D01*
X89026Y521897D01*
X89210Y521121D01*
X89376Y520340D01*
X89522Y519556D01*
X89648Y518769D01*
X89756Y517978D01*
X89844Y517186D01*
X89912Y516391D01*
X89961Y515595D01*
X89990Y514798D01*
X90000Y514000D01*
X89990Y513202D01*
X89961Y512405D01*
X89912Y511609D01*
X89844Y510814D01*
X89756Y510022D01*
X89648Y509231D01*
X89522Y508444D01*
X89376Y507660D01*
X89210Y506879D01*
X89026Y506103D01*
X88823Y505332D01*
X88601Y504566D01*
X88360Y503805D01*
X88100Y503051D01*
X87822Y502303D01*
X87526Y501563D01*
X87212Y500830D01*
X86880Y500104D01*
X86530Y499388D01*
X86162Y498680D01*
X85778Y497981D01*
X85376Y497292D01*
X84958Y496613D01*
X84523Y495944D01*
X84072Y495286D01*
X83604Y494640D01*
X83121Y494005D01*
X82623Y493382D01*
X82109Y492772D01*
X81581Y492174D01*
X81038Y491590D01*
X80481Y491019D01*
X79910Y490462D01*
X79326Y489919D01*
X78728Y489391D01*
X78118Y488877D01*
X77495Y488379D01*
X76860Y487896D01*
X76214Y487428D01*
X75556Y486977D01*
X74887Y486542D01*
X74208Y486124D01*
X73519Y485722D01*
X72820Y485338D01*
X72112Y484970D01*
X71396Y484620D01*
X70670Y484288D01*
X69937Y483974D01*
X69197Y483678D01*
X68449Y483400D01*
X67695Y483140D01*
X66934Y482899D01*
X66168Y482677D01*
X65397Y482474D01*
X64621Y482290D01*
X63840Y482124D01*
X63056Y481978D01*
X62269Y481852D01*
X61478Y481744D01*
X60686Y481656D01*
X59891Y481588D01*
X59095Y481539D01*
X58298Y481510D01*
X57500Y481500D01*
X56702Y481510D01*
X55905Y481539D01*
X55109Y481588D01*
X54314Y481656D01*
X53522Y481744D01*
X52731Y481852D01*
X51944Y481978D01*
X51160Y482124D01*
X50379Y482290D01*
X49603Y482474D01*
X48832Y482677D01*
X48066Y482899D01*
X47305Y483140D01*
X46551Y483400D01*
X45803Y483678D01*
X45063Y483974D01*
X44330Y484288D01*
X43604Y484620D01*
X42888Y484970D01*
X42180Y485338D01*
X41481Y485722D01*
X40792Y486124D01*
X40113Y486542D01*
X39444Y486977D01*
X38786Y487428D01*
X38140Y487896D01*
X37505Y488379D01*
X36882Y488877D01*
X36272Y489391D01*
X35674Y489919D01*
X35090Y490462D01*
X34519Y491019D01*
X33962Y491590D01*
X33419Y492174D01*
X32891Y492772D01*
X32377Y493382D01*
X31879Y494005D01*
X31396Y494640D01*
X30928Y495286D01*
X30477Y495944D01*
X30042Y496613D01*
X29624Y497292D01*
X29222Y497981D01*
X28838Y498680D01*
X28470Y499388D01*
X28120Y500104D01*
X27788Y500830D01*
X27474Y501563D01*
X27178Y502303D01*
X26900Y503051D01*
X26640Y503805D01*
X26399Y504566D01*
X26177Y505332D01*
X25974Y506103D01*
X25790Y506879D01*
X25624Y507660D01*
X25478Y508444D01*
X25352Y509231D01*
X25244Y510022D01*
X25156Y510814D01*
X25088Y511609D01*
X25039Y512405D01*
X25010Y513202D01*
X25000Y514000D01*
X38450Y496220D02*
X51150Y496220D01*
X44800Y489870D02*
X44800Y502570D01*
D11*
X54937Y479079D02*
X55742Y478274D01*
X54937Y479079D02*
X53327Y479079D01*
X52522Y478274D01*
X52522Y475054D01*
X53327Y474249D01*
X54937Y474249D01*
X55742Y475054D01*
X58135Y477469D02*
X59745Y479079D01*
X59745Y474249D01*
X58135Y474249D02*
X61355Y474249D01*
D10*
X224750Y534780D02*
X237450Y534780D01*
X211300Y517000D02*
X211310Y517798D01*
X211339Y518595D01*
X211388Y519391D01*
X211456Y520186D01*
X211544Y520978D01*
X211652Y521769D01*
X211778Y522556D01*
X211924Y523340D01*
X212090Y524121D01*
X212274Y524897D01*
X212477Y525668D01*
X212699Y526434D01*
X212940Y527195D01*
X213200Y527949D01*
X213478Y528697D01*
X213774Y529437D01*
X214088Y530170D01*
X214420Y530896D01*
X214770Y531612D01*
X215138Y532320D01*
X215522Y533019D01*
X215924Y533708D01*
X216342Y534387D01*
X216777Y535056D01*
X217228Y535714D01*
X217696Y536360D01*
X218179Y536995D01*
X218677Y537618D01*
X219191Y538228D01*
X219719Y538826D01*
X220262Y539410D01*
X220819Y539981D01*
X221390Y540538D01*
X221974Y541081D01*
X222572Y541609D01*
X223182Y542123D01*
X223805Y542621D01*
X224440Y543104D01*
X225086Y543572D01*
X225744Y544023D01*
X226413Y544458D01*
X227092Y544876D01*
X227781Y545278D01*
X228480Y545662D01*
X229188Y546030D01*
X229904Y546380D01*
X230630Y546712D01*
X231363Y547026D01*
X232103Y547322D01*
X232851Y547600D01*
X233605Y547860D01*
X234366Y548101D01*
X235132Y548323D01*
X235903Y548526D01*
X236679Y548710D01*
X237460Y548876D01*
X238244Y549022D01*
X239031Y549148D01*
X239822Y549256D01*
X240614Y549344D01*
X241409Y549412D01*
X242205Y549461D01*
X243002Y549490D01*
X243800Y549500D01*
X244598Y549490D01*
X245395Y549461D01*
X246191Y549412D01*
X246986Y549344D01*
X247778Y549256D01*
X248569Y549148D01*
X249356Y549022D01*
X250140Y548876D01*
X250921Y548710D01*
X251697Y548526D01*
X252468Y548323D01*
X253234Y548101D01*
X253995Y547860D01*
X254749Y547600D01*
X255497Y547322D01*
X256237Y547026D01*
X256970Y546712D01*
X257696Y546380D01*
X258412Y546030D01*
X259120Y545662D01*
X259819Y545278D01*
X260508Y544876D01*
X261187Y544458D01*
X261856Y544023D01*
X262514Y543572D01*
X263160Y543104D01*
X263795Y542621D01*
X264418Y542123D01*
X265028Y541609D01*
X265626Y541081D01*
X266210Y540538D01*
X266781Y539981D01*
X267338Y539410D01*
X267881Y538826D01*
X268409Y538228D01*
X268923Y537618D01*
X269421Y536995D01*
X269904Y536360D01*
X270372Y535714D01*
X270823Y535056D01*
X271258Y534387D01*
X271676Y533708D01*
X272078Y533019D01*
X272462Y532320D01*
X272830Y531612D01*
X273180Y530896D01*
X273512Y530170D01*
X273826Y529437D01*
X274122Y528697D01*
X274400Y527949D01*
X274660Y527195D01*
X274901Y526434D01*
X275123Y525668D01*
X275326Y524897D01*
X275510Y524121D01*
X275676Y523340D01*
X275822Y522556D01*
X275948Y521769D01*
X276056Y520978D01*
X276144Y520186D01*
X276212Y519391D01*
X276261Y518595D01*
X276290Y517798D01*
X276300Y517000D01*
X276290Y516202D01*
X276261Y515405D01*
X276212Y514609D01*
X276144Y513814D01*
X276056Y513022D01*
X275948Y512231D01*
X275822Y511444D01*
X275676Y510660D01*
X275510Y509879D01*
X275326Y509103D01*
X275123Y508332D01*
X274901Y507566D01*
X274660Y506805D01*
X274400Y506051D01*
X274122Y505303D01*
X273826Y504563D01*
X273512Y503830D01*
X273180Y503104D01*
X272830Y502388D01*
X272462Y501680D01*
X272078Y500981D01*
X271676Y500292D01*
X271258Y499613D01*
X270823Y498944D01*
X270372Y498286D01*
X269904Y497640D01*
X269421Y497005D01*
X268923Y496382D01*
X268409Y495772D01*
X267881Y495174D01*
X267338Y494590D01*
X266781Y494019D01*
X266210Y493462D01*
X265626Y492919D01*
X265028Y492391D01*
X264418Y491877D01*
X263795Y491379D01*
X263160Y490896D01*
X262514Y490428D01*
X261856Y489977D01*
X261187Y489542D01*
X260508Y489124D01*
X259819Y488722D01*
X259120Y488338D01*
X258412Y487970D01*
X257696Y487620D01*
X256970Y487288D01*
X256237Y486974D01*
X255497Y486678D01*
X254749Y486400D01*
X253995Y486140D01*
X253234Y485899D01*
X252468Y485677D01*
X251697Y485474D01*
X250921Y485290D01*
X250140Y485124D01*
X249356Y484978D01*
X248569Y484852D01*
X247778Y484744D01*
X246986Y484656D01*
X246191Y484588D01*
X245395Y484539D01*
X244598Y484510D01*
X243800Y484500D01*
X243002Y484510D01*
X242205Y484539D01*
X241409Y484588D01*
X240614Y484656D01*
X239822Y484744D01*
X239031Y484852D01*
X238244Y484978D01*
X237460Y485124D01*
X236679Y485290D01*
X235903Y485474D01*
X235132Y485677D01*
X234366Y485899D01*
X233605Y486140D01*
X232851Y486400D01*
X232103Y486678D01*
X231363Y486974D01*
X230630Y487288D01*
X229904Y487620D01*
X229188Y487970D01*
X228480Y488338D01*
X227781Y488722D01*
X227092Y489124D01*
X226413Y489542D01*
X225744Y489977D01*
X225086Y490428D01*
X224440Y490896D01*
X223805Y491379D01*
X223182Y491877D01*
X222572Y492391D01*
X221974Y492919D01*
X221390Y493462D01*
X220819Y494019D01*
X220262Y494590D01*
X219719Y495174D01*
X219191Y495772D01*
X218677Y496382D01*
X218179Y497005D01*
X217696Y497640D01*
X217228Y498286D01*
X216777Y498944D01*
X216342Y499613D01*
X215924Y500292D01*
X215522Y500981D01*
X215138Y501680D01*
X214770Y502388D01*
X214420Y503104D01*
X214088Y503830D01*
X213774Y504563D01*
X213478Y505303D01*
X213200Y506051D01*
X212940Y506805D01*
X212699Y507566D01*
X212477Y508332D01*
X212274Y509103D01*
X212090Y509879D01*
X211924Y510660D01*
X211778Y511444D01*
X211652Y512231D01*
X211544Y513022D01*
X211456Y513814D01*
X211388Y514609D01*
X211339Y515405D01*
X211310Y516202D01*
X211300Y517000D01*
X250150Y534780D02*
X262850Y534780D01*
X256500Y541130D02*
X256500Y528430D01*
D11*
X242042Y555950D02*
X241237Y556755D01*
X239627Y556755D01*
X238822Y555950D01*
X238822Y552730D01*
X239627Y551925D01*
X241237Y551925D01*
X242042Y552730D01*
X244435Y551925D02*
X247655Y551925D01*
X244435Y551925D02*
X247655Y555145D01*
X247655Y555950D01*
X246850Y556755D01*
X245240Y556755D01*
X244435Y555950D01*
D10*
X548350Y538700D02*
X561050Y538700D01*
X567400Y532350D01*
X567400Y519650D02*
X561050Y513300D01*
X567400Y532350D02*
X573750Y538700D01*
X586450Y538700D01*
X592800Y532350D01*
X592800Y519650D02*
X586450Y513300D01*
X573750Y513300D01*
X567400Y519650D01*
X542000Y519650D02*
X542000Y532350D01*
X548350Y538700D01*
X542000Y519650D02*
X548350Y513300D01*
X561050Y513300D01*
X592800Y519650D02*
X592800Y532350D01*
D11*
X545855Y544630D02*
X545050Y545435D01*
X543440Y545435D01*
X542635Y544630D01*
X542635Y543825D01*
X543440Y543020D01*
X545050Y543020D01*
X545855Y542215D01*
X545855Y541410D01*
X545050Y540605D01*
X543440Y540605D01*
X542635Y541410D01*
X548248Y540605D02*
X548248Y545435D01*
X549858Y542215D02*
X548248Y540605D01*
X549858Y542215D02*
X551468Y540605D01*
X551468Y545435D01*
X553861Y540605D02*
X555471Y540605D01*
X554666Y540605D02*
X554666Y545435D01*
X553861Y545435D02*
X555471Y545435D01*
X559213Y545435D02*
X559213Y540605D01*
X557603Y545435D02*
X560823Y545435D01*
X565631Y545435D02*
X566436Y544630D01*
X565631Y545435D02*
X564021Y545435D01*
X563216Y544630D01*
X563216Y541410D01*
X564021Y540605D01*
X565631Y540605D01*
X566436Y541410D01*
X568829Y540605D02*
X568829Y545435D01*
X568829Y543020D02*
X572050Y543020D01*
X572050Y545435D02*
X572050Y540605D01*
D14*
X483620Y511800D02*
X442980Y511800D01*
X483620Y511800D02*
X483620Y537200D01*
X442980Y537200D01*
X442980Y511800D01*
X456950Y524500D02*
X463300Y524500D01*
X473460Y530850D02*
X473460Y518150D01*
X463300Y524500D01*
X478540Y524500D01*
X473460Y530850D02*
X463300Y524500D01*
X463300Y530850D01*
X463300Y524500D02*
X463300Y518150D01*
D17*
X449330Y524500D03*
D18*
X493145Y524500D03*
X433455Y524500D03*
D11*
X707820Y474490D02*
X707820Y253510D01*
X540180Y253510D01*
X540180Y474490D01*
X707820Y474490D01*
X617602Y449725D02*
X612941Y449725D01*
X615271Y449725D02*
X615271Y463707D01*
X612941Y463707D02*
X617602Y463707D01*
X622296Y463707D02*
X622296Y449725D01*
X631618Y449725D02*
X622296Y463707D01*
X631618Y463707D02*
X631618Y449725D01*
X610577Y278287D02*
X605916Y278287D01*
X603586Y275957D01*
X603586Y266635D01*
X605916Y264305D01*
X610577Y264305D01*
X612907Y266635D01*
X612907Y275957D01*
X610577Y278287D01*
X617619Y278287D02*
X617619Y266635D01*
X619949Y264305D01*
X624610Y264305D01*
X626940Y266635D01*
X626940Y278287D01*
X636312Y278287D02*
X636312Y264305D01*
X631651Y278287D02*
X640973Y278287D01*
D15*
X577010Y433850D02*
X564310Y433850D01*
X677340Y427500D02*
X677340Y440200D01*
X570660Y440200D02*
X570660Y427500D01*
X564310Y294150D02*
X577010Y294150D01*
X677340Y287800D02*
X677340Y300500D01*
X570660Y300500D02*
X570660Y287800D01*
D10*
X490000Y337650D02*
X490000Y350350D01*
D11*
X487437Y333209D02*
X488242Y332404D01*
X487437Y333209D02*
X485827Y333209D01*
X485022Y332404D01*
X485022Y329184D01*
X485827Y328379D01*
X487437Y328379D01*
X488242Y329184D01*
X492245Y332404D02*
X493855Y333209D01*
X492245Y332404D02*
X490635Y330794D01*
X490635Y329184D01*
X491440Y328379D01*
X493050Y328379D01*
X493855Y329184D01*
X493855Y329989D01*
X493050Y330794D01*
X490635Y330794D01*
D10*
X486650Y433780D02*
X473950Y433780D01*
X460500Y416000D02*
X460510Y416798D01*
X460539Y417595D01*
X460588Y418391D01*
X460656Y419186D01*
X460744Y419978D01*
X460852Y420769D01*
X460978Y421556D01*
X461124Y422340D01*
X461290Y423121D01*
X461474Y423897D01*
X461677Y424668D01*
X461899Y425434D01*
X462140Y426195D01*
X462400Y426949D01*
X462678Y427697D01*
X462974Y428437D01*
X463288Y429170D01*
X463620Y429896D01*
X463970Y430612D01*
X464338Y431320D01*
X464722Y432019D01*
X465124Y432708D01*
X465542Y433387D01*
X465977Y434056D01*
X466428Y434714D01*
X466896Y435360D01*
X467379Y435995D01*
X467877Y436618D01*
X468391Y437228D01*
X468919Y437826D01*
X469462Y438410D01*
X470019Y438981D01*
X470590Y439538D01*
X471174Y440081D01*
X471772Y440609D01*
X472382Y441123D01*
X473005Y441621D01*
X473640Y442104D01*
X474286Y442572D01*
X474944Y443023D01*
X475613Y443458D01*
X476292Y443876D01*
X476981Y444278D01*
X477680Y444662D01*
X478388Y445030D01*
X479104Y445380D01*
X479830Y445712D01*
X480563Y446026D01*
X481303Y446322D01*
X482051Y446600D01*
X482805Y446860D01*
X483566Y447101D01*
X484332Y447323D01*
X485103Y447526D01*
X485879Y447710D01*
X486660Y447876D01*
X487444Y448022D01*
X488231Y448148D01*
X489022Y448256D01*
X489814Y448344D01*
X490609Y448412D01*
X491405Y448461D01*
X492202Y448490D01*
X493000Y448500D01*
X493798Y448490D01*
X494595Y448461D01*
X495391Y448412D01*
X496186Y448344D01*
X496978Y448256D01*
X497769Y448148D01*
X498556Y448022D01*
X499340Y447876D01*
X500121Y447710D01*
X500897Y447526D01*
X501668Y447323D01*
X502434Y447101D01*
X503195Y446860D01*
X503949Y446600D01*
X504697Y446322D01*
X505437Y446026D01*
X506170Y445712D01*
X506896Y445380D01*
X507612Y445030D01*
X508320Y444662D01*
X509019Y444278D01*
X509708Y443876D01*
X510387Y443458D01*
X511056Y443023D01*
X511714Y442572D01*
X512360Y442104D01*
X512995Y441621D01*
X513618Y441123D01*
X514228Y440609D01*
X514826Y440081D01*
X515410Y439538D01*
X515981Y438981D01*
X516538Y438410D01*
X517081Y437826D01*
X517609Y437228D01*
X518123Y436618D01*
X518621Y435995D01*
X519104Y435360D01*
X519572Y434714D01*
X520023Y434056D01*
X520458Y433387D01*
X520876Y432708D01*
X521278Y432019D01*
X521662Y431320D01*
X522030Y430612D01*
X522380Y429896D01*
X522712Y429170D01*
X523026Y428437D01*
X523322Y427697D01*
X523600Y426949D01*
X523860Y426195D01*
X524101Y425434D01*
X524323Y424668D01*
X524526Y423897D01*
X524710Y423121D01*
X524876Y422340D01*
X525022Y421556D01*
X525148Y420769D01*
X525256Y419978D01*
X525344Y419186D01*
X525412Y418391D01*
X525461Y417595D01*
X525490Y416798D01*
X525500Y416000D01*
X525490Y415202D01*
X525461Y414405D01*
X525412Y413609D01*
X525344Y412814D01*
X525256Y412022D01*
X525148Y411231D01*
X525022Y410444D01*
X524876Y409660D01*
X524710Y408879D01*
X524526Y408103D01*
X524323Y407332D01*
X524101Y406566D01*
X523860Y405805D01*
X523600Y405051D01*
X523322Y404303D01*
X523026Y403563D01*
X522712Y402830D01*
X522380Y402104D01*
X522030Y401388D01*
X521662Y400680D01*
X521278Y399981D01*
X520876Y399292D01*
X520458Y398613D01*
X520023Y397944D01*
X519572Y397286D01*
X519104Y396640D01*
X518621Y396005D01*
X518123Y395382D01*
X517609Y394772D01*
X517081Y394174D01*
X516538Y393590D01*
X515981Y393019D01*
X515410Y392462D01*
X514826Y391919D01*
X514228Y391391D01*
X513618Y390877D01*
X512995Y390379D01*
X512360Y389896D01*
X511714Y389428D01*
X511056Y388977D01*
X510387Y388542D01*
X509708Y388124D01*
X509019Y387722D01*
X508320Y387338D01*
X507612Y386970D01*
X506896Y386620D01*
X506170Y386288D01*
X505437Y385974D01*
X504697Y385678D01*
X503949Y385400D01*
X503195Y385140D01*
X502434Y384899D01*
X501668Y384677D01*
X500897Y384474D01*
X500121Y384290D01*
X499340Y384124D01*
X498556Y383978D01*
X497769Y383852D01*
X496978Y383744D01*
X496186Y383656D01*
X495391Y383588D01*
X494595Y383539D01*
X493798Y383510D01*
X493000Y383500D01*
X492202Y383510D01*
X491405Y383539D01*
X490609Y383588D01*
X489814Y383656D01*
X489022Y383744D01*
X488231Y383852D01*
X487444Y383978D01*
X486660Y384124D01*
X485879Y384290D01*
X485103Y384474D01*
X484332Y384677D01*
X483566Y384899D01*
X482805Y385140D01*
X482051Y385400D01*
X481303Y385678D01*
X480563Y385974D01*
X479830Y386288D01*
X479104Y386620D01*
X478388Y386970D01*
X477680Y387338D01*
X476981Y387722D01*
X476292Y388124D01*
X475613Y388542D01*
X474944Y388977D01*
X474286Y389428D01*
X473640Y389896D01*
X473005Y390379D01*
X472382Y390877D01*
X471772Y391391D01*
X471174Y391919D01*
X470590Y392462D01*
X470019Y393019D01*
X469462Y393590D01*
X468919Y394174D01*
X468391Y394772D01*
X467877Y395382D01*
X467379Y396005D01*
X466896Y396640D01*
X466428Y397286D01*
X465977Y397944D01*
X465542Y398613D01*
X465124Y399292D01*
X464722Y399981D01*
X464338Y400680D01*
X463970Y401388D01*
X463620Y402104D01*
X463288Y402830D01*
X462974Y403563D01*
X462678Y404303D01*
X462400Y405051D01*
X462140Y405805D01*
X461899Y406566D01*
X461677Y407332D01*
X461474Y408103D01*
X461290Y408879D01*
X461124Y409660D01*
X460978Y410444D01*
X460852Y411231D01*
X460744Y412022D01*
X460656Y412814D01*
X460588Y413609D01*
X460539Y414405D01*
X460510Y415202D01*
X460500Y416000D01*
X499350Y433780D02*
X512050Y433780D01*
X505700Y440130D02*
X505700Y427430D01*
D11*
X491242Y454950D02*
X490437Y455755D01*
X488827Y455755D01*
X488022Y454950D01*
X488022Y451730D01*
X488827Y450925D01*
X490437Y450925D01*
X491242Y451730D01*
X493635Y455755D02*
X496855Y455755D01*
X493635Y455755D02*
X493635Y453340D01*
X495245Y454145D01*
X496050Y454145D01*
X496855Y453340D01*
X496855Y451730D01*
X496050Y450925D01*
X494440Y450925D01*
X493635Y451730D01*
D10*
X490000Y477650D02*
X490000Y490350D01*
D11*
X487437Y473209D02*
X488242Y472404D01*
X487437Y473209D02*
X485827Y473209D01*
X485022Y472404D01*
X485022Y469184D01*
X485827Y468379D01*
X487437Y468379D01*
X488242Y469184D01*
X490635Y472404D02*
X491440Y473209D01*
X493050Y473209D01*
X493855Y472404D01*
X493855Y471599D01*
X493050Y470794D01*
X492245Y470794D01*
X493050Y470794D02*
X493855Y469989D01*
X493855Y469184D01*
X493050Y468379D01*
X491440Y468379D01*
X490635Y469184D01*
D10*
X641500Y488000D02*
X641500Y543000D01*
X649000Y543000D01*
X706500Y543000D01*
X706500Y488000D01*
X649000Y488000D01*
X641500Y488000D01*
X649000Y488000D02*
X649000Y543000D01*
D11*
X639075Y491740D02*
X638270Y490935D01*
X639075Y491740D02*
X639075Y492545D01*
X638270Y493350D01*
X634245Y493350D01*
X634245Y492545D02*
X634245Y494155D01*
X634245Y496548D02*
X634245Y499768D01*
X634245Y496548D02*
X636660Y496548D01*
X635855Y498158D01*
X635855Y498963D01*
X636660Y499768D01*
X638270Y499768D01*
X639075Y498963D01*
X639075Y497353D01*
X638270Y496548D01*
M02*
