G04 EAGLE Gerber RS-274X export*
G75*
%MOMM*%
%FSLAX34Y34*%
%LPD*%
%INBottom Silkscreen*%
%IPPOS*%
%AMOC8*
5,1,8,0,0,1.08239X$1,22.5*%
G01*
%ADD10C,0.152400*%


D10*
X441526Y416609D02*
X436103Y416609D01*
X433391Y413897D01*
X433391Y405762D01*
X441526Y405762D01*
X444238Y408474D01*
X441526Y411185D01*
X433391Y411185D01*
X419732Y405762D02*
X419732Y422032D01*
X427866Y413897D01*
X417020Y413897D01*
X411495Y408474D02*
X408783Y405762D01*
X403360Y405762D01*
X400648Y408474D01*
X400648Y419320D01*
X403360Y422032D01*
X408783Y422032D01*
X411495Y419320D01*
X411495Y416609D01*
X408783Y413897D01*
X400648Y413897D01*
X395123Y419320D02*
X392412Y422032D01*
X386988Y422032D01*
X384277Y419320D01*
X384277Y416609D01*
X386988Y413897D01*
X384277Y411185D01*
X384277Y408474D01*
X386988Y405762D01*
X392412Y405762D01*
X395123Y408474D01*
X395123Y411185D01*
X392412Y413897D01*
X395123Y416609D01*
X395123Y419320D01*
X392412Y413897D02*
X386988Y413897D01*
X378752Y419320D02*
X376040Y422032D01*
X370617Y422032D01*
X367905Y419320D01*
X367905Y416609D01*
X370617Y413897D01*
X367905Y411185D01*
X367905Y408474D01*
X370617Y405762D01*
X376040Y405762D01*
X378752Y408474D01*
X378752Y411185D01*
X376040Y413897D01*
X378752Y416609D01*
X378752Y419320D01*
X376040Y413897D02*
X370617Y413897D01*
X346009Y405762D02*
X337874Y405762D01*
X335162Y408474D01*
X337874Y411185D01*
X343297Y411185D01*
X346009Y413897D01*
X343297Y416609D01*
X335162Y416609D01*
X326925Y405762D02*
X321502Y405762D01*
X318790Y408474D01*
X318790Y413897D01*
X321502Y416609D01*
X326925Y416609D01*
X329637Y413897D01*
X329637Y408474D01*
X326925Y405762D01*
X313266Y422032D02*
X310554Y422032D01*
X310554Y405762D01*
X313266Y405762D02*
X307842Y405762D01*
X291505Y405762D02*
X291505Y422032D01*
X291505Y405762D02*
X299640Y405762D01*
X302351Y408474D01*
X302351Y413897D01*
X299640Y416609D01*
X291505Y416609D01*
X283268Y405762D02*
X277845Y405762D01*
X283268Y405762D02*
X285980Y408474D01*
X285980Y413897D01*
X283268Y416609D01*
X277845Y416609D01*
X275133Y413897D01*
X275133Y411185D01*
X285980Y411185D01*
X269608Y405762D02*
X269608Y416609D01*
X264185Y416609D02*
X269608Y411185D01*
X264185Y416609D02*
X261473Y416609D01*
X239593Y400339D02*
X236882Y400339D01*
X234170Y403050D01*
X234170Y416609D01*
X234170Y422032D02*
X234170Y424744D01*
X228679Y416609D02*
X228679Y408474D01*
X225967Y405762D01*
X217833Y405762D01*
X217833Y416609D01*
X212308Y416609D02*
X212308Y405762D01*
X212308Y416609D02*
X209596Y416609D01*
X206884Y413897D01*
X206884Y405762D01*
X206884Y413897D02*
X204173Y416609D01*
X201461Y413897D01*
X201461Y405762D01*
X195936Y400339D02*
X195936Y416609D01*
X187801Y416609D01*
X185089Y413897D01*
X185089Y408474D01*
X187801Y405762D01*
X195936Y405762D01*
X176853Y405762D02*
X171429Y405762D01*
X176853Y405762D02*
X179564Y408474D01*
X179564Y413897D01*
X176853Y416609D01*
X171429Y416609D01*
X168718Y413897D01*
X168718Y411185D01*
X179564Y411185D01*
X163193Y405762D02*
X163193Y416609D01*
X157770Y416609D02*
X163193Y411185D01*
X157770Y416609D02*
X155058Y416609D01*
X133178Y416609D02*
X133178Y408474D01*
X130467Y405762D01*
X122332Y405762D01*
X122332Y403050D02*
X122332Y416609D01*
X122332Y403050D02*
X125043Y400339D01*
X127755Y400339D01*
X114095Y405762D02*
X108672Y405762D01*
X114095Y405762D02*
X116807Y408474D01*
X116807Y413897D01*
X114095Y416609D01*
X108672Y416609D01*
X105960Y413897D01*
X105960Y411185D01*
X116807Y411185D01*
X100435Y405762D02*
X92300Y405762D01*
X89589Y408474D01*
X92300Y411185D01*
X97724Y411185D01*
X100435Y413897D01*
X97724Y416609D01*
X89589Y416609D01*
X188840Y406450D02*
X188840Y368350D01*
X160900Y365810D02*
X160800Y365812D01*
X160701Y365818D01*
X160601Y365828D01*
X160503Y365841D01*
X160404Y365859D01*
X160307Y365880D01*
X160211Y365905D01*
X160115Y365934D01*
X160021Y365967D01*
X159928Y366003D01*
X159837Y366043D01*
X159747Y366087D01*
X159659Y366134D01*
X159573Y366184D01*
X159489Y366238D01*
X159407Y366295D01*
X159328Y366355D01*
X159250Y366419D01*
X159176Y366485D01*
X159104Y366554D01*
X159035Y366626D01*
X158969Y366700D01*
X158905Y366778D01*
X158845Y366857D01*
X158788Y366939D01*
X158734Y367023D01*
X158684Y367109D01*
X158637Y367197D01*
X158593Y367287D01*
X158553Y367378D01*
X158517Y367471D01*
X158484Y367565D01*
X158455Y367661D01*
X158430Y367757D01*
X158409Y367854D01*
X158391Y367953D01*
X158378Y368051D01*
X158368Y368151D01*
X158362Y368250D01*
X158360Y368350D01*
X158360Y406450D02*
X158362Y406550D01*
X158368Y406649D01*
X158378Y406749D01*
X158391Y406847D01*
X158409Y406946D01*
X158430Y407043D01*
X158455Y407139D01*
X158484Y407235D01*
X158517Y407329D01*
X158553Y407422D01*
X158593Y407513D01*
X158637Y407603D01*
X158684Y407691D01*
X158734Y407777D01*
X158788Y407861D01*
X158845Y407943D01*
X158905Y408022D01*
X158969Y408100D01*
X159035Y408174D01*
X159104Y408246D01*
X159176Y408315D01*
X159250Y408381D01*
X159328Y408445D01*
X159407Y408505D01*
X159489Y408562D01*
X159573Y408616D01*
X159659Y408666D01*
X159747Y408713D01*
X159837Y408757D01*
X159928Y408797D01*
X160021Y408833D01*
X160115Y408866D01*
X160211Y408895D01*
X160307Y408920D01*
X160404Y408941D01*
X160503Y408959D01*
X160601Y408972D01*
X160701Y408982D01*
X160800Y408988D01*
X160900Y408990D01*
X186300Y408990D02*
X186400Y408988D01*
X186499Y408982D01*
X186599Y408972D01*
X186697Y408959D01*
X186796Y408941D01*
X186893Y408920D01*
X186989Y408895D01*
X187085Y408866D01*
X187179Y408833D01*
X187272Y408797D01*
X187363Y408757D01*
X187453Y408713D01*
X187541Y408666D01*
X187627Y408616D01*
X187711Y408562D01*
X187793Y408505D01*
X187872Y408445D01*
X187950Y408381D01*
X188024Y408315D01*
X188096Y408246D01*
X188165Y408174D01*
X188231Y408100D01*
X188295Y408022D01*
X188355Y407943D01*
X188412Y407861D01*
X188466Y407777D01*
X188516Y407691D01*
X188563Y407603D01*
X188607Y407513D01*
X188647Y407422D01*
X188683Y407329D01*
X188716Y407235D01*
X188745Y407139D01*
X188770Y407043D01*
X188791Y406946D01*
X188809Y406847D01*
X188822Y406749D01*
X188832Y406649D01*
X188838Y406550D01*
X188840Y406450D01*
X188840Y368350D02*
X188838Y368250D01*
X188832Y368151D01*
X188822Y368051D01*
X188809Y367953D01*
X188791Y367854D01*
X188770Y367757D01*
X188745Y367661D01*
X188716Y367565D01*
X188683Y367471D01*
X188647Y367378D01*
X188607Y367287D01*
X188563Y367197D01*
X188516Y367109D01*
X188466Y367023D01*
X188412Y366939D01*
X188355Y366857D01*
X188295Y366778D01*
X188231Y366700D01*
X188165Y366626D01*
X188096Y366554D01*
X188024Y366485D01*
X187950Y366419D01*
X187872Y366355D01*
X187793Y366295D01*
X187711Y366238D01*
X187627Y366184D01*
X187541Y366134D01*
X187453Y366087D01*
X187363Y366043D01*
X187272Y366003D01*
X187179Y365967D01*
X187085Y365934D01*
X186989Y365905D01*
X186893Y365880D01*
X186796Y365859D01*
X186697Y365841D01*
X186599Y365828D01*
X186499Y365818D01*
X186400Y365812D01*
X186300Y365810D01*
X160900Y365810D01*
X160900Y408990D02*
X186300Y408990D01*
X158360Y406450D02*
X158360Y368350D01*
X400440Y365650D02*
X400440Y403750D01*
X369960Y365650D02*
X369962Y365550D01*
X369968Y365451D01*
X369978Y365351D01*
X369991Y365253D01*
X370009Y365154D01*
X370030Y365057D01*
X370055Y364961D01*
X370084Y364865D01*
X370117Y364771D01*
X370153Y364678D01*
X370193Y364587D01*
X370237Y364497D01*
X370284Y364409D01*
X370334Y364323D01*
X370388Y364239D01*
X370445Y364157D01*
X370505Y364078D01*
X370569Y364000D01*
X370635Y363926D01*
X370704Y363854D01*
X370776Y363785D01*
X370850Y363719D01*
X370928Y363655D01*
X371007Y363595D01*
X371089Y363538D01*
X371173Y363484D01*
X371259Y363434D01*
X371347Y363387D01*
X371437Y363343D01*
X371528Y363303D01*
X371621Y363267D01*
X371715Y363234D01*
X371811Y363205D01*
X371907Y363180D01*
X372004Y363159D01*
X372103Y363141D01*
X372201Y363128D01*
X372301Y363118D01*
X372400Y363112D01*
X372500Y363110D01*
X369960Y403750D02*
X369962Y403850D01*
X369968Y403949D01*
X369978Y404049D01*
X369991Y404147D01*
X370009Y404246D01*
X370030Y404343D01*
X370055Y404439D01*
X370084Y404535D01*
X370117Y404629D01*
X370153Y404722D01*
X370193Y404813D01*
X370237Y404903D01*
X370284Y404991D01*
X370334Y405077D01*
X370388Y405161D01*
X370445Y405243D01*
X370505Y405322D01*
X370569Y405400D01*
X370635Y405474D01*
X370704Y405546D01*
X370776Y405615D01*
X370850Y405681D01*
X370928Y405745D01*
X371007Y405805D01*
X371089Y405862D01*
X371173Y405916D01*
X371259Y405966D01*
X371347Y406013D01*
X371437Y406057D01*
X371528Y406097D01*
X371621Y406133D01*
X371715Y406166D01*
X371811Y406195D01*
X371907Y406220D01*
X372004Y406241D01*
X372103Y406259D01*
X372201Y406272D01*
X372301Y406282D01*
X372400Y406288D01*
X372500Y406290D01*
X397900Y406290D02*
X398000Y406288D01*
X398099Y406282D01*
X398199Y406272D01*
X398297Y406259D01*
X398396Y406241D01*
X398493Y406220D01*
X398589Y406195D01*
X398685Y406166D01*
X398779Y406133D01*
X398872Y406097D01*
X398963Y406057D01*
X399053Y406013D01*
X399141Y405966D01*
X399227Y405916D01*
X399311Y405862D01*
X399393Y405805D01*
X399472Y405745D01*
X399550Y405681D01*
X399624Y405615D01*
X399696Y405546D01*
X399765Y405474D01*
X399831Y405400D01*
X399895Y405322D01*
X399955Y405243D01*
X400012Y405161D01*
X400066Y405077D01*
X400116Y404991D01*
X400163Y404903D01*
X400207Y404813D01*
X400247Y404722D01*
X400283Y404629D01*
X400316Y404535D01*
X400345Y404439D01*
X400370Y404343D01*
X400391Y404246D01*
X400409Y404147D01*
X400422Y404049D01*
X400432Y403949D01*
X400438Y403850D01*
X400440Y403750D01*
X400440Y365650D02*
X400438Y365550D01*
X400432Y365451D01*
X400422Y365351D01*
X400409Y365253D01*
X400391Y365154D01*
X400370Y365057D01*
X400345Y364961D01*
X400316Y364865D01*
X400283Y364771D01*
X400247Y364678D01*
X400207Y364587D01*
X400163Y364497D01*
X400116Y364409D01*
X400066Y364323D01*
X400012Y364239D01*
X399955Y364157D01*
X399895Y364078D01*
X399831Y364000D01*
X399765Y363926D01*
X399696Y363854D01*
X399624Y363785D01*
X399550Y363719D01*
X399472Y363655D01*
X399393Y363595D01*
X399311Y363538D01*
X399227Y363484D01*
X399141Y363434D01*
X399053Y363387D01*
X398963Y363343D01*
X398872Y363303D01*
X398779Y363267D01*
X398685Y363234D01*
X398589Y363205D01*
X398493Y363180D01*
X398396Y363159D01*
X398297Y363141D01*
X398199Y363128D01*
X398099Y363118D01*
X398000Y363112D01*
X397900Y363110D01*
X372500Y363110D01*
X372500Y406290D02*
X397900Y406290D01*
X369960Y403750D02*
X369960Y365650D01*
M02*
