M48
;GenerationSoftware,Autodesk,EAGLE,9.3.0*%
;CreationDate,2020-04-15T16:26:35Z*%
FMAT,2
ICI,OFF
METRIC,TZ,000.000
T6C0.700
T5C0.800
T4C1.000
T3C1.016
T2C1.118
T1C1.200
%
G90
M71
T1
X69004Y27129
X58336Y27129
X55796Y27129
X58336Y45671
X66464Y27129
X66464Y45671
X55796Y45671
X69004Y45671
T2
X41250Y52450
X51410Y52450
T3
X30780Y50190
X33320Y50190
X35860Y50190
X38400Y50190
X11350Y50690
X13890Y50690
X16430Y50690
X18970Y50690
X58010Y52600
X55470Y52600
X67400Y52840
X67400Y50300
T4
X47430Y5760
X44890Y5760
X42350Y5760
X39810Y5760
X37270Y5760
X34730Y5760
X32190Y5760
X29650Y5760
X27110Y5760
X24570Y5760
X22030Y5760
X19490Y5760
X16950Y5760
X14410Y5760
X11870Y5760
X9330Y5760
X6790Y5760
X4250Y5760
X49970Y28410
X47430Y28410
X44890Y28410
X42350Y28410
X39810Y28410
X37270Y28410
X34730Y28410
X32190Y28410
X29650Y28410
X27110Y28410
X24570Y28410
X22030Y28410
X19490Y28410
X16950Y28410
X14410Y28410
X11870Y28410
X9330Y28410
X6790Y28410
X4250Y28410
X49970Y5760
T5
X25890Y32560
X28430Y32560
X30970Y32560
X33510Y32560
X36050Y32560
X41130Y32560
X43670Y32560
X43670Y45260
X41130Y45260
X38590Y45260
X36050Y45260
X33510Y45260
X30970Y45260
X28430Y45260
X25890Y45260
X4390Y32780
X6930Y32780
X9470Y32780
X56770Y14950
X56770Y12410
X56770Y17490
X56770Y20030
X56770Y22570
X4390Y45480
X56770Y7330
X56770Y4790
X6930Y45480
X9470Y45480
X12010Y45480
X14550Y45480
X17090Y45480
X19630Y45480
X38590Y32560
X22170Y45480
X22170Y32780
X19630Y32780
X17090Y32780
X14550Y32780
X56770Y9870
X12010Y32780
T6
X23130Y51700
X25630Y51700
X50270Y34400
X7000Y51400
X48050Y41600
X50550Y41600
X50270Y48400
X47730Y48400
X4500Y51400
X47730Y34400
M30